<?xml version="1.0" encoding="UTF-8"?>
<svg width="239px" height="105px" viewBox="0 0 239 105" version="1.1" xmlns="http://www.w3.org/2000/svg" xmlns:xlink="http://www.w3.org/1999/xlink">
    <!-- Generator: Sketch 61.2 (89653) - https://sketch.com -->
    <title>Group 12</title>
    <desc>Created with Sketch.</desc>
    <g id="Page-1" stroke="none" stroke-width="1" fill="none" fill-rule="evenodd">
        <g id="home" transform="translate(-689.000000, -880.000000)">
            <g id="Group-12" transform="translate(689.178312, 880.144210)">
                <polygon id="Path-2" fill="#FFFFFF" points="7.72764638 0.355789644 238.255221 7.91367429 238.255221 65.8557896 0.618238502 49.8646347"></polygon>
                <path d="M31.2522916,36.4435144 C31.304375,36.4435144 31.3727343,36.4402592 31.4573697,36.4337487 C31.5420052,36.4272383 31.5973437,36.4239831 31.6233854,36.4239831 L31.6233854,36.4239831 L36.1351041,35.4669519 C36.1611458,35.453931 36.22625,35.4213789 36.3304166,35.3692956 C36.4345833,35.3172123 36.5452604,35.2455977 36.6624479,35.1544519 C36.7796354,35.063306 36.8772916,34.968905 36.9554166,34.8712487 C37.0335416,34.7735925 37.0726041,34.6922123 37.0726041,34.6271081 C37.0726041,34.4968998 37.0205208,34.4187748 36.9163541,34.3927331 C36.8121875,34.3666914 36.7080208,34.3536706 36.6038541,34.3536706 C36.1611458,34.3536706 35.7216927,34.3927331 35.2854947,34.4708581 C34.8492968,34.5489831 34.4130989,34.6368737 33.976901,34.73453 C33.5407031,34.8321862 33.1045052,34.9233321 32.6683072,35.0079675 C32.2321093,35.0926029 31.7926562,35.1349206 31.3499479,35.1349206 C30.8160937,35.1349206 30.3701302,34.985181 30.0120572,34.6857019 C29.6539843,34.3862227 29.3707812,34.0118737 29.1624479,33.562655 C28.9541145,33.1134362 28.8076302,32.625155 28.7229947,32.0978112 C28.6383593,31.5704675 28.5960416,31.0854414 28.5960416,30.6427331 C28.5960416,29.9526289 28.72625,29.3048425 28.9866666,28.6993737 C29.2470833,28.093905 29.5986458,27.5405196 30.0413541,27.0392175 C30.4840625,26.5379154 30.991875,26.0952071 31.5647916,25.7110925 C32.1377083,25.3269779 32.7236458,25.0177331 33.3226041,24.7833581 L33.3226041,24.7833581 L33.5960416,24.7833581 C33.7392708,24.7833581 33.8857552,24.7996342 34.0354947,24.8321862 C34.1852343,24.8647383 34.2601041,24.9721602 34.2601041,25.1544519 C34.2601041,25.297681 34.2405729,25.4278894 34.2015104,25.5450769 C34.1624479,25.6622644 34.1103645,25.7761967 34.0452604,25.8868737 C33.9801562,25.9975508 33.9280729,26.1147383 33.8890104,26.2384362 C33.8499479,26.3621342 33.8304166,26.4890873 33.8304166,26.6192956 C34.0257291,26.6192956 34.2047656,26.5444258 34.367526,26.3946862 C34.5302864,26.2449467 34.6767708,26.062655 34.8069791,25.8478112 C34.9371875,25.6329675 35.0348437,25.4148685 35.0999479,25.1935144 C35.165052,24.9721602 35.1976041,24.7768477 35.1976041,24.6075769 C35.1976041,24.3211185 35.1194791,24.0607019 34.9632291,23.8263269 C34.8069791,23.5919519 34.5726041,23.4747644 34.2601041,23.4747644 C33.7132291,23.4747644 33.1663541,23.5854414 32.6194791,23.8067956 C32.0726041,24.0411706 31.5517708,24.3536706 31.0569791,24.7442956 C30.5621875,25.1349206 30.1097135,25.5841394 29.6995572,26.0919519 C29.289401,26.5997644 28.9345833,27.1336185 28.6351041,27.6935144 C28.335625,28.2534102 28.10125,28.8165612 27.9319791,29.3829675 C27.7627083,29.9493737 27.6780729,30.4929935 27.6780729,31.0138269 C27.6780729,31.3653894 27.7041145,31.7429935 27.7561979,32.1466394 C27.8082812,32.5502852 27.8961718,32.953931 28.0198697,33.3575769 C28.1435677,33.7612227 28.2998177,34.1485925 28.4886197,34.5196862 C28.6774218,34.89078 28.9052864,35.2163008 29.1722135,35.4962487 C29.4391406,35.7761967 29.7451302,36.0040612 30.0901822,36.1798425 C30.4352343,36.3556237 30.8226041,36.4435144 31.2522916,36.4435144 Z M43.3534201,36.4435144 C43.9393576,36.4435144 44.5122743,36.3491133 45.0721701,36.1603112 C45.6320659,35.9715092 46.133368,35.6980717 46.5760763,35.3399987 C47.0187847,34.9819258 47.3703472,34.5424727 47.6307638,34.0216394 C47.8911805,33.500806 48.0213888,32.9083581 48.0213888,32.2442956 C48.0213888,31.9578373 47.9823263,31.6616133 47.9042013,31.3556237 C47.8260763,31.0496342 47.712144,30.7468998 47.5624045,30.4474206 C47.4126649,30.1479414 47.2336284,29.8582279 47.0252951,29.57828 C46.8169618,29.2983321 46.5793315,29.0509362 46.3124045,28.8360925 C46.0454774,28.6212487 45.7655295,28.4519779 45.4725607,28.32828 C45.179592,28.2045821 44.8638368,28.1427331 44.5252951,28.1427331 C43.8872743,28.1427331 43.2525086,28.2306237 42.6209982,28.406405 C41.9894878,28.5821862 41.4198263,28.8523685 40.9120138,29.2169519 C40.4042013,29.5815352 39.9940451,30.0307539 39.6815451,30.5646081 C39.3690451,31.0984623 39.2127951,31.7234623 39.2127951,32.4396081 C39.2127951,33.0515873 39.3169618,33.6082279 39.5252951,34.10953 C39.7336284,34.6108321 40.023342,35.0307539 40.3944357,35.3692956 C40.7655295,35.7078373 41.2017274,35.9715092 41.7030295,36.1603112 C42.2043315,36.3491133 42.7544618,36.4435144 43.3534201,36.4435144 Z M43.2772482,35.3189255 L43.1385763,35.3107019 C42.7219097,35.3107019 42.3312847,35.2293217 41.9667013,35.0665612 C41.602118,34.9038008 41.2863628,34.6857019 41.0194357,34.4122644 C40.7525086,34.1388269 40.5441753,33.8165612 40.3944357,33.4454675 C40.2446961,33.0743737 40.1698263,32.6870039 40.1698263,32.2833581 C40.1698263,31.7885664 40.2935243,31.3523685 40.5409201,30.9747644 C40.7883159,30.5971602 41.1008159,30.2846602 41.4784201,30.0372644 C41.8560243,29.7898685 42.2759461,29.6043217 42.7381857,29.4806237 C43.2004253,29.3569258 43.6463888,29.2950769 44.0760763,29.2950769 C44.8312847,29.5685144 45.4237326,29.8647383 45.8534201,30.1837487 C46.2831076,30.5027592 46.5793315,30.8347904 46.742092,31.1798425 C46.9048524,31.5248946 46.9634461,31.8699467 46.9178732,32.2149987 C46.8723003,32.5600508 46.7518576,32.8920821 46.5565451,33.2110925 C46.3612326,33.5301029 46.117092,33.8230717 45.8241232,34.0899987 C45.5311545,34.3569258 45.2251649,34.5847904 44.9061545,34.7735925 C44.587144,34.9623946 44.2681336,35.1056237 43.9491232,35.20328 C43.6301128,35.3009362 43.3599305,35.3367435 43.1385763,35.3107019 L43.2772482,35.3189255 Z M52.4662673,36.5021081 C52.4662673,36.0854414 52.4272048,35.6687748 52.3490798,35.2521081 C52.2709548,34.8354414 52.1830642,34.42203 52.0854079,34.0118737 C51.9877517,33.6017175 51.8998611,33.1915612 51.8217361,32.781405 C51.7436111,32.3712487 51.7045486,31.9578373 51.7045486,31.5411706 C51.7045486,31.1245039 51.7794184,30.7403894 51.9291579,30.3888269 C52.0788975,30.0372644 52.2839756,29.7377852 52.5443923,29.4903894 C52.804809,29.2429935 53.1107986,29.0541914 53.4623611,28.9239831 C53.8139236,28.7937748 54.1915277,28.7286706 54.5951736,28.7286706 C55.0248611,28.7286706 55.4285069,28.9239831 55.8061111,29.3146081 C56.1837152,29.7052331 56.5027256,30.2325769 56.7631423,30.8966394 C57.023559,31.5607019 57.2123611,32.3321862 57.3295486,33.2110925 C57.4467361,34.0899987 57.4467361,35.0307539 57.3295486,36.0333581 C57.3295486,36.0854414 57.352335,36.1245039 57.3979079,36.1505456 C57.4434809,36.1765873 57.4988194,36.1993737 57.5639236,36.218905 C57.6290277,36.2384362 57.6941319,36.2514571 57.7592361,36.2579675 C57.8243402,36.2644779 57.8699131,36.2677331 57.8959548,36.2677331 C58.0522048,36.2677331 58.1824131,36.1798425 58.2865798,36.0040612 C58.3907465,35.82828 58.4656163,35.6232019 58.5111892,35.3888269 C58.5567621,35.1544519 58.5893142,34.9200769 58.6088454,34.6857019 C58.6283767,34.4513269 58.6381423,34.2755456 58.6381423,34.1583581 C58.6381423,33.8198164 58.6055902,33.4194258 58.5404861,32.9571862 C58.4753819,32.4949467 58.3712152,32.0196862 58.2279861,31.531405 C58.0847569,31.0431237 57.9089756,30.5646081 57.7006423,30.0958581 C57.492309,29.6271081 57.2416579,29.203931 56.9486892,28.8263269 C56.6557204,28.4487227 56.3236892,28.1459883 55.9525954,27.9181237 C55.5815017,27.6902592 55.1746006,27.5763269 54.7318923,27.5763269 C54.3933506,27.5763269 54.0515538,27.6479414 53.7065017,27.7911706 C53.3614496,27.9343998 53.0359288,28.0906498 52.7299392,28.2599206 C52.4239496,28.4291914 52.1407465,28.5854414 51.8803298,28.7286706 C51.6199131,28.8718998 51.398559,28.9435144 51.2162673,28.9435144 C51.1511631,28.9435144 51.1055902,28.9207279 51.0795486,28.875155 C51.0535069,28.8295821 51.0339756,28.7807539 51.0209548,28.7286706 C51.007934,28.6765873 50.9851475,28.6310144 50.9525954,28.5919519 C50.9200434,28.5528894 50.8647048,28.5333581 50.7865798,28.5333581 C50.6824131,28.5333581 50.5880121,28.5496342 50.5033767,28.5821862 C50.4187413,28.6147383 50.3764236,28.6896081 50.3764236,28.8067956 L50.3764236,28.8067956 L50.3764236,29.9884362 C50.3764236,30.4897383 50.3926996,31.0235925 50.4252517,31.5899987 C50.4578038,32.156405 50.5163975,32.7325769 50.6010329,33.3185144 C50.6856684,33.9044519 50.8028559,34.4317956 50.9525954,34.9005456 C51.102335,35.3692956 51.3009027,35.7534102 51.5482986,36.0528894 C51.7956944,36.3523685 52.101684,36.5021081 52.4662673,36.5021081 Z M65.7783333,36.4435144 C65.9345833,36.4435144 66.0517708,36.4174727 66.1298958,36.3653894 C66.2340625,36.313306 66.2861458,36.2026289 66.2861458,36.0333581 C66.2861458,35.6687748 66.1689583,35.3041914 65.9345833,34.9396081 C65.7002083,34.5750248 65.446302,34.1974206 65.1728645,33.8067956 C64.899427,33.4161706 64.648776,33.0060144 64.4209114,32.5763269 C64.1930468,32.1466394 64.0791145,31.6843998 64.0791145,31.1896081 C64.586927,31.2937748 65.055677,31.3491133 65.4853645,31.3556237 C65.915052,31.3621342 66.273125,31.3360925 66.5595833,31.2774987 C66.8460416,31.218905 67.0511197,31.1277592 67.1748177,31.0040612 C67.2985156,30.8803633 67.3017708,30.7468998 67.1845833,30.6036706 C67.2236458,30.3432539 67.1064583,30.2130456 66.8330208,30.2130456 C66.1819791,30.1739831 65.6448697,30.1349206 65.2216927,30.0958581 C64.7985156,30.0567956 64.4599739,30.0209883 64.2060677,29.9884362 C63.9521614,29.9558842 63.7666145,29.9298425 63.649427,29.9103112 C63.5322395,29.89078 63.460625,29.8679935 63.4345833,29.8419519 L63.4345833,29.8419519 L63.0830208,27.0489831 L63.0830208,26.8536706 C63.0830208,26.4370039 63.148125,26.0268477 63.2783333,25.6232019 C63.4085416,25.219556 63.6038541,24.8549727 63.8642708,24.5294519 C64.1246875,24.203931 64.4371875,23.9435144 64.8017708,23.7482019 C65.1663541,23.5528894 65.57,23.4552331 66.0127083,23.4552331 C66.3252083,23.4552331 66.6051562,23.5528894 66.852552,23.7482019 C67.0999479,23.9435144 67.3343229,24.1616133 67.555677,24.4024987 C67.7770312,24.6433842 67.9886197,24.8614831 68.1904427,25.0567956 C68.3922656,25.2521081 68.6233854,25.3497644 68.883802,25.3497644 L68.883802,25.3497644 L69.3330208,25.3497644 C69.3330208,24.985181 69.2158333,24.6238529 68.9814583,24.26578 C68.7470833,23.9077071 68.4508593,23.5854414 68.0927864,23.2989831 C67.7347135,23.0125248 67.3473437,22.781405 66.930677,22.6056237 C66.5140104,22.4298425 66.1298958,22.3419519 65.7783333,22.3419519 C65.1533333,22.3419519 64.6259895,22.4786706 64.196302,22.7521081 C63.7666145,23.0255456 63.4117968,23.3836185 63.1318489,23.8263269 C62.851901,24.2690352 62.6370572,24.7670821 62.4873177,25.3204675 C62.3375781,25.8738529 62.2301562,26.4370039 62.165052,27.0099206 C62.0999479,27.5828373 62.0739062,28.1362227 62.086927,28.6700769 C62.0999479,29.203931 62.1194791,29.6661706 62.1455208,30.0567956 C61.9892708,30.0698164 61.7907031,30.0860925 61.5498177,30.1056237 C61.3089322,30.125155 61.0778125,30.1609623 60.8564583,30.2130456 C60.6351041,30.2651289 60.446302,30.3497644 60.290052,30.4669519 C60.133802,30.5841394 60.055677,30.7534102 60.055677,30.9747644 C60.055677,31.078931 60.0752083,31.1668217 60.1142708,31.2384362 C60.1533333,31.3100508 60.2249479,31.3458581 60.3291145,31.3458581 L60.3291145,31.3458581 L60.4267708,31.3458581 C60.5048958,31.3458581 60.6351041,31.3263269 60.8173958,31.2872644 C60.9996875,31.2482019 61.1884895,31.2091394 61.383802,31.1700769 C61.5791145,31.1310144 61.7646614,31.0952071 61.9404427,31.062655 C62.1162239,31.0301029 62.2366666,31.000806 62.3017708,30.9747644 L62.3017708,30.9747644 L62.5166145,31.1896081 C62.555677,31.2937748 62.6272916,31.4435144 62.7314583,31.6388269 C62.8226041,31.8471602 62.930026,32.0815352 63.0537239,32.3419519 C63.1774218,32.6023685 63.304375,32.8725508 63.4345833,33.1524987 C63.5647916,33.4324467 63.695,33.7026289 63.8252083,33.9630456 C63.9554166,34.2234623 64.0693489,34.4513269 64.1670052,34.6466394 C64.2158333,34.7442956 64.2589648,34.8305586 64.2963997,34.9054284 L64.3916145,35.0958581 C64.4436979,35.2000248 64.5153125,35.3302331 64.6064583,35.4864831 C64.710625,35.6427331 64.8245572,35.7924727 64.9482552,35.9357019 C65.0719531,36.078931 65.2086718,36.1993737 65.3584114,36.29703 C65.508151,36.3946862 65.648125,36.4435144 65.7783333,36.4435144 Z M70.320868,25.6817956 C70.5292013,25.6557539 70.6268576,25.5646081 70.6138368,25.4083581 C70.6008159,25.2781498 70.5454774,25.1349206 70.4478211,24.9786706 C70.3501649,24.8224206 70.226467,24.6824467 70.0767274,24.5587487 C69.9269878,24.4350508 69.8065451,24.3797123 69.7153993,24.3927331 C69.5721701,24.3927331 69.4549826,24.4155196 69.3638368,24.4610925 C69.2726909,24.5066654 69.227118,24.6075769 69.227118,24.7638269 C69.227118,24.9721602 69.243394,25.1349206 69.2759461,25.2521081 C69.3084982,25.3692956 69.3605815,25.4571862 69.4321961,25.51578 C69.5038107,25.5743737 69.6047222,25.6166914 69.7349305,25.6427331 C69.8651388,25.6687748 70.0278993,25.6817956 70.2232118,25.6817956 L70.2232118,25.6817956 L70.320868,25.6817956 Z M71.4536805,36.4435144 C71.6750347,36.4435144 71.8410503,36.3523685 71.9517274,36.1700769 C72.0624045,35.9877852 72.117743,35.8054935 72.117743,35.6232019 C72.117743,34.9461185 72.0624045,34.2950769 71.9517274,33.6700769 C71.8410503,33.0450769 71.7238628,32.4233321 71.6001649,31.8048425 C71.476467,31.1863529 71.3657899,30.5613529 71.2681336,29.9298425 C71.1704774,29.2983321 71.1411805,28.6440352 71.180243,27.9669519 C71.102118,27.8367435 71.0174826,27.7390873 70.9263368,27.6739831 C70.8351909,27.6088789 70.7245138,27.5763269 70.5943055,27.5763269 C70.3078472,27.5763269 70.1906597,27.7781498 70.242743,28.1817956 L70.242743,28.1817956 L70.242743,28.4747644 C70.242743,28.6179935 70.2394878,28.7677331 70.2329774,28.9239831 C70.226467,29.0802331 70.2232118,29.2299727 70.2232118,29.3732019 L70.2232118,29.3732019 L70.2236104,29.7353272 C70.2252047,29.8891856 70.2315823,30.1363157 70.242743,30.4767175 C70.2557638,30.8738529 70.2785503,31.3230717 70.3111024,31.8243737 C70.3436545,32.3256758 70.3924826,32.8497644 70.4575868,33.3966394 C70.5226909,33.9435144 70.6008159,34.4415612 70.6919618,34.89078 C70.7831076,35.3399987 70.8905295,35.7110925 71.0142274,36.0040612 C71.1379253,36.29703 71.2844097,36.4435144 71.4536805,36.4435144 Z M75.8594965,36.4239831 C76.0417881,36.4239831 76.2045486,36.3491133 76.3477777,36.1993737 C76.4910069,36.0496342 76.5626215,35.9096602 76.5626215,35.7794519 C76.5365798,35.4278894 76.4779861,35.0828373 76.3868402,34.7442956 C76.2956944,34.4057539 76.1947829,34.0639571 76.0841059,33.718905 C75.9734288,33.3738529 75.8562413,33.0288008 75.7325434,32.6837487 C75.6088454,32.3386967 75.507934,31.9936446 75.429809,31.6485925 C75.351684,31.3035404 75.3061111,30.9487227 75.2930902,30.5841394 C75.2800694,30.219556 75.3191319,29.8484623 75.4102777,29.4708581 C75.6186111,29.1323164 75.8594965,28.8979414 76.132934,28.7677331 C76.3933506,28.6114831 76.6732986,28.5268477 76.9727777,28.5138269 C77.2722569,28.500806 77.5847569,28.5268477 77.9102777,28.5919519 C78.2357986,28.657056 78.5515538,28.735181 78.8575434,28.8263269 C79.1635329,28.9174727 79.4565017,28.9923425 79.7364496,29.0509362 C80.0163975,29.10953 80.2605381,29.125806 80.4688715,29.0997644 C80.4688715,28.891431 80.4493402,28.7221602 80.4102777,28.5919519 C80.3712152,28.4617435 80.3158767,28.3510664 80.2442621,28.2599206 C80.1726475,28.1687748 80.0945225,28.0873946 80.0098871,28.01578 C79.9252517,27.9441654 79.8308506,27.8692956 79.726684,27.7911706 C79.5183506,27.7260664 79.336059,27.6707279 79.179809,27.625155 C79.023559,27.5795821 78.8770746,27.5405196 78.7403559,27.5079675 C78.6036371,27.4754154 78.4669184,27.4526289 78.3301996,27.4396081 C78.1934809,27.4265873 78.0339756,27.4200769 77.851684,27.4200769 C77.6042881,27.4200769 77.3503819,27.4526289 77.0899652,27.5177331 C76.8295486,27.5828373 76.5723871,27.6642175 76.3184809,27.7618737 C76.0645746,27.85953 75.8139236,27.9636967 75.5665277,28.0743737 C75.3191319,28.1850508 75.0782465,28.2794519 74.8438715,28.3575769 C74.8178298,28.3315352 74.7527256,28.2989831 74.648559,28.2599206 C74.5443923,28.2208581 74.4792881,28.1948164 74.4532465,28.1817956 L74.4532465,28.1817956 L74.414184,28.1817956 C74.3881423,28.1817956 74.3751215,28.1785404 74.3751215,28.17203 C74.3751215,28.1655196 74.3686111,28.1622644 74.3555902,28.1622644 C74.3425694,28.1622644 74.336059,28.1655196 74.336059,28.17203 C74.336059,28.1785404 74.3295486,28.1817956 74.3165277,28.1817956 L74.3165277,28.1817956 L74.2774652,28.1817956 C74.1993402,28.2599206 74.1440017,28.3510664 74.1114496,28.4552331 C74.0788975,28.5593998 74.0593663,28.6700769 74.0528559,28.7872644 C74.0463454,28.9044519 74.0496006,29.0183842 74.0626215,29.1290612 C74.0756423,29.2397383 74.0821527,29.3406498 74.0821527,29.4317956 C74.1081944,29.9135664 74.1635329,30.4506758 74.2481684,31.0431237 C74.3328038,31.6355717 74.4467361,32.2442956 74.5899652,32.8692956 C74.7331944,33.4942956 74.9089756,34.1127852 75.117309,34.7247644 C75.3256423,35.3367435 75.5730381,35.9031498 75.8594965,36.4239831 Z M95.3825,36.4435144 C95.616875,36.4435144 95.7991666,36.3165612 95.929375,36.062655 C96.0595833,35.8087487 96.1539843,35.51578 96.2125781,35.1837487 C96.2711718,34.8517175 96.3037239,34.5261967 96.3102343,34.2071862 C96.3167447,33.8881758 96.32,33.6635664 96.32,33.5333581 C96.32,33.1948164 96.2907031,32.8237227 96.2321093,32.4200769 C96.1735156,32.016431 96.0791145,31.60953 95.9489062,31.1993737 C95.8186979,30.7892175 95.6559375,30.3920821 95.460625,30.0079675 C95.2653125,29.6238529 95.0309375,29.2788008 94.7575,28.9728112 C94.4840625,28.6668217 94.1748177,28.422681 93.8297656,28.2403894 C93.4847135,28.0580977 93.0908333,27.9669519 92.648125,27.9669519 C92.3616666,27.9669519 92.0686979,28.0288008 91.7692187,28.1524987 C91.4697395,28.2761967 91.1767708,28.4291914 90.8903125,28.6114831 C90.6038541,28.7937748 90.3304166,28.9923425 90.07,29.2071862 C89.8095833,29.42203 89.5817187,29.6173425 89.3864062,29.7931237 C89.1910937,29.968905 89.0348437,30.1186446 88.9176562,30.2423425 C88.8004687,30.3660404 88.7353645,30.4278894 88.7223437,30.4278894 C88.7093229,30.4278894 88.6930468,30.4246342 88.6735156,30.4181237 C88.6539843,30.4116133 88.6377083,30.4083581 88.6246875,30.4083581 C88.4163541,30.0958581 88.2080208,29.8224206 87.9996875,29.5880456 C87.7913541,29.3406498 87.5634895,29.1420821 87.3160937,28.9923425 C87.0686979,28.8426029 86.7920052,28.7286706 86.4860156,28.6505456 C86.180026,28.5724206 85.8382291,28.5333581 85.460625,28.5333581 C85.22625,28.5333581 85.0276822,28.5398685 84.8649218,28.5528894 C84.7021614,28.5659102 84.5459114,28.6049727 84.3961718,28.6700769 C84.2464322,28.735181 84.0901822,28.8295821 83.9274218,28.95328 C83.7646614,29.0769779 83.5791145,29.2495039 83.3707812,29.4708581 C83.3707812,29.2625248 83.3186979,29.0932539 83.2145312,28.9630456 C83.1103645,28.8067956 82.9476041,28.7286706 82.72625,28.7286706 L82.72625,28.7286706 L82.6285937,28.7286706 C82.6155729,28.7547123 82.5830208,28.7872644 82.5309375,28.8263269 C82.4788541,28.8653894 82.446302,28.8979414 82.4332812,28.9239831 L82.4332812,28.9239831 L82.4332812,29.0509362 C82.4332812,29.10953 82.430026,29.1746342 82.4235156,29.2462487 C82.4170052,29.3178633 82.41375,29.3862227 82.41375,29.4513269 L82.41375,29.4513269 L82.41375,29.5880456 C82.41375,30.0567956 82.430026,30.4995039 82.4625781,30.9161706 C82.4951302,31.3328373 82.5276822,31.7462487 82.5602343,32.156405 C82.5927864,32.5665612 82.6188281,32.9995039 82.6383593,33.4552331 C82.6578906,33.9109623 82.6546354,34.4057539 82.6285937,34.9396081 C82.6546354,35.0437748 82.6871875,35.1642175 82.72625,35.3009362 C82.7653125,35.437655 82.8173958,35.5613529 82.8825,35.67203 C82.9476041,35.7827071 83.0289843,35.8738529 83.1266406,35.9454675 C83.2242968,36.0170821 83.3447395,36.0528894 83.4879687,36.0528894 C83.7093229,36.0528894 83.8395312,35.9780196 83.8785937,35.82828 C83.9176562,35.6785404 83.9371875,35.5125248 83.9371875,35.3302331 C83.9371875,34.8224206 83.9013802,34.3178633 83.8297656,33.8165612 C83.758151,33.3152592 83.7223437,32.8041914 83.7223437,32.2833581 C83.7223437,31.9578373 83.7711718,31.6388269 83.8688281,31.3263269 C83.9664843,31.0138269 84.1032031,30.7338789 84.2789843,30.4864831 C84.4547656,30.2390873 84.679375,30.0405196 84.9528125,29.89078 C85.22625,29.7410404 85.53875,29.6661706 85.8903125,29.6661706 C86.3460416,29.6661706 86.7203906,29.8028894 87.0133593,30.0763269 C87.3063281,30.3497644 87.5537239,30.6980717 87.7555468,31.1212487 C87.9573697,31.5444258 88.1266406,31.9968998 88.2633593,32.4786706 C88.4000781,32.9604414 88.5302864,33.4129154 88.6539843,33.8360925 C88.7776822,34.2592696 88.914401,34.6075769 89.0641406,34.8810144 C89.2138802,35.1544519 89.4059375,35.2911706 89.6403125,35.2911706 C89.8616666,35.2911706 90.0016406,35.2130456 90.0602343,35.0567956 C90.1188281,34.9005456 90.148125,34.7442956 90.148125,34.5880456 C90.148125,34.3797123 90.1155729,34.1778894 90.0504687,33.9825769 C89.9853645,33.7872644 89.9170052,33.5984623 89.8453906,33.4161706 C89.773776,33.2338789 89.7054166,33.0483321 89.6403125,32.85953 C89.5752083,32.6707279 89.5426562,32.4786706 89.5426562,32.2833581 C89.5426562,31.8927331 89.6533333,31.5216394 89.8746875,31.1700769 C90.0830208,30.8054935 90.3532031,30.4832279 90.6852343,30.20328 C91.0172656,29.9233321 91.3753385,29.6954675 91.7594531,29.5196862 C92.1435677,29.343905 92.5114062,29.2560144 92.8629687,29.2560144 C93.2535937,29.2560144 93.5921354,29.4122644 93.8785937,29.7247644 C94.165052,30.0372644 94.4026822,30.4083581 94.5914843,30.8380456 C94.7802864,31.2677331 94.9202604,31.703931 95.0114062,32.1466394 C95.102552,32.5893477 95.1611458,32.9474206 95.1871875,33.2208581 C95.1871875,33.2729414 95.180677,33.3933842 95.1676562,33.5821862 C95.1546354,33.7709883 95.1351041,33.969556 95.1090625,34.1778894 C95.0830208,34.3862227 95.0602343,34.5815352 95.0407031,34.7638269 C95.0211718,34.9461185 95.0114062,35.0567956 95.0114062,35.0958581 L95.0114062,35.0958581 L94.991875,35.2130456 L94.991875,35.2130456 L94.991875,35.3888269 C94.991875,35.453931 94.9886197,35.5190352 94.9821093,35.5841394 C94.9755989,35.6492435 94.9723437,35.7013269 94.9723437,35.7403894 L94.9723437,35.7403894 L94.9723437,35.9942956 C94.9723437,36.0724206 94.9853645,36.1440352 95.0114062,36.2091394 C95.0374479,36.2742435 95.0765104,36.3295821 95.1285937,36.375155 C95.180677,36.4207279 95.2653125,36.4435144 95.3825,36.4435144 Z M103.987535,36.4239831 C104.300035,36.4239831 104.632066,36.3979414 104.983628,36.3458581 C105.335191,36.2937748 105.690009,36.2123946 106.048082,36.1017175 C106.406154,35.9910404 106.744696,35.844556 107.063707,35.6622644 C107.382717,35.4799727 107.646389,35.2455977 107.854722,34.9591394 L107.854722,34.9591394 L104.358628,35.1935144 C103.551337,35.1544519 102.874253,35.0600508 102.327378,34.9103112 C101.780503,34.7605717 101.328029,34.5717696 100.969957,34.343905 C100.611884,34.1160404 100.338446,33.8523685 100.149644,33.5528894 C99.960842,33.2534102 99.8241232,32.9409102 99.7394878,32.6153894 C99.6548524,32.2898685 99.6060243,31.9578373 99.5930034,31.6192956 C99.5799826,31.2807539 99.5734722,30.9422123 99.5734722,30.6036706 C99.5734722,30.1609623 99.6450868,29.7377852 99.7883159,29.3341394 C99.9315451,28.9304935 100.133368,28.562655 100.393785,28.2306237 C100.654201,27.8985925 100.969957,27.6284102 101.34105,27.4200769 C101.712144,27.2117435 102.125556,27.0880456 102.581285,27.0489831 C102.867743,27.0229414 103.124904,27.0685144 103.352769,27.1857019 C103.580634,27.3028894 103.779201,27.4591394 103.948472,27.6544519 C104.117743,27.8497644 104.244696,28.0743737 104.329332,28.32828 C104.413967,28.5821862 104.456285,28.8393477 104.456285,29.0997644 C104.456285,29.3471602 104.326076,29.5978112 104.06566,29.8517175 C103.805243,30.1056237 103.495998,30.3302331 103.137925,30.5255456 C102.779852,30.7208581 102.42829,30.8803633 102.083238,31.0040612 C101.738186,31.1277592 101.474514,31.1896081 101.292222,31.1896081 C100.979722,31.1375248 100.732326,31.0984623 100.550035,31.0724206 C100.367743,31.0593998 100.231024,31.062655 100.139878,31.0821862 C100.048733,31.1017175 99.993394,31.1342696 99.9738628,31.1798425 C99.9543315,31.2254154 99.9445659,31.2807539 99.9445659,31.3458581 C99.9445659,31.5541914 99.9836284,31.7104414 100.061753,31.8146081 C100.139878,31.9187748 100.244045,31.9968998 100.374253,32.0489831 C100.504462,32.1010664 100.650946,32.1271081 100.813707,32.1271081 L100.813707,32.1271081 L101.292222,32.1271081 C101.708889,32.1271081 102.158108,32.0587487 102.639878,31.92203 C103.121649,31.7853112 103.570868,31.5899987 103.987535,31.3360925 C104.404201,31.0821862 104.749253,30.766431 105.022691,30.3888269 C105.296128,30.0112227 105.432847,29.5880456 105.432847,29.1192956 C105.432847,28.7286706 105.393785,28.3640873 105.31566,28.0255456 C105.224514,27.6739831 105.078029,27.3647383 104.876207,27.0978112 C104.674384,26.8308842 104.413967,26.6062748 104.094957,26.4239831 C103.775946,26.2416914 103.401597,26.1245039 102.97191,26.0724206 C102.242743,26.0724206 101.601467,26.2123946 101.048082,26.4923425 C100.494696,26.7722904 100.025946,27.1466394 99.6418315,27.6153894 C99.257717,28.0841394 98.9647482,28.6277592 98.7629253,29.2462487 C98.5611024,29.8647383 98.4601909,30.5125248 98.4601909,31.1896081 C98.4601909,31.9968998 98.6066753,32.7228112 98.899644,33.3673425 C99.1926128,34.0118737 99.5930034,34.5587487 100.100816,35.0079675 C100.608628,35.4571862 101.194566,35.8054935 101.858628,36.0528894 C102.522691,36.3002852 103.232326,36.4239831 103.987535,36.4239831 Z M112.983194,36.4239831 C113.425903,36.4239831 113.865356,36.3523685 114.301554,36.2091394 C114.737752,36.0659102 115.154418,35.8738529 115.551554,35.6329675 C115.948689,35.3920821 116.313273,35.1121342 116.645304,34.7931237 C116.977335,34.4741133 117.267049,34.1453373 117.514444,33.8067956 C117.514444,33.7937748 117.537231,33.7840092 117.582804,33.7774987 C117.628377,33.7709883 117.664184,33.7677331 117.690226,33.7677331 C117.794392,33.7677331 117.879028,33.813306 117.944132,33.9044519 C118.009236,33.9955977 118.06783,34.10953 118.119913,34.2462487 C118.171996,34.3829675 118.220825,34.5327071 118.266398,34.6954675 C118.31197,34.8582279 118.360799,35.0047123 118.412882,35.1349206 C118.464965,35.2651289 118.53658,35.3790612 118.627726,35.4767175 C118.718871,35.5743737 118.829549,35.6232019 118.959757,35.6232019 C119.116007,35.6232019 119.269002,35.5971602 119.418741,35.5450769 C119.568481,35.4929935 119.643351,35.3627852 119.643351,35.1544519 C119.552205,34.985181 119.483845,34.6954675 119.438273,34.2853112 C119.3927,33.875155 119.343871,33.3803633 119.291788,32.8009362 C119.239705,32.2215092 119.190877,31.5867435 119.145304,30.8966394 C119.099731,30.2065352 119.037882,29.4968998 118.959757,28.7677331 C118.881632,28.0385664 118.783976,27.3191654 118.666788,26.60953 C118.549601,25.8998946 118.399861,25.2325769 118.217569,24.6075769 C118.035278,23.9825769 117.817179,23.4324467 117.563273,22.9571862 C117.309366,22.4819258 117.006632,22.1140873 116.655069,21.8536706 C116.394653,21.9187748 116.238403,22.0750248 116.186319,22.3224206 C116.134236,22.5698164 116.140746,22.8823164 116.205851,23.2599206 C116.270955,23.6375248 116.378377,24.0639571 116.528116,24.5392175 C116.677856,25.0144779 116.82434,25.5190352 116.967569,26.0528894 C117.110799,26.5867435 117.227986,27.1303633 117.319132,27.6837487 C117.410278,28.2371342 117.429809,28.7742435 117.377726,29.2950769 C116.97408,29.0216394 116.59322,28.7709883 116.235148,28.5431237 C115.877075,28.3152592 115.532023,28.1166914 115.199991,27.9474206 C114.86796,27.7781498 114.545694,27.6479414 114.233194,27.5567956 C113.920694,27.4656498 113.608194,27.4200769 113.295694,27.4200769 C112.696736,27.4200769 112.192179,27.5665612 111.782023,27.85953 C111.371866,28.1524987 111.033325,28.5268477 110.766398,28.9825769 C110.49947,29.438306 110.304158,29.9330977 110.18046,30.4669519 C110.056762,31.000806 109.994913,31.5086185 109.994913,31.9903894 C109.994913,32.3679935 110.056762,32.8107019 110.18046,33.3185144 C110.304158,33.8263269 110.49296,34.3080977 110.746866,34.7638269 C111.000773,35.219556 111.313273,35.610181 111.684366,35.9357019 C112.05546,36.2612227 112.488403,36.4239831 112.983194,36.4239831 Z M113.295694,35.0958581 C112.957153,35.0958581 112.683715,35.0405196 112.475382,34.9298425 C112.267049,34.8191654 112.088012,34.6531498 111.938273,34.4317956 C111.788533,34.2104414 111.66158,33.9239831 111.557413,33.5724206 C111.453246,33.2208581 111.336059,32.8107019 111.205851,32.3419519 C111.19283,31.9643477 111.238403,31.5672123 111.342569,31.1505456 C111.446736,30.7338789 111.609496,30.3562748 111.830851,30.0177331 C112.052205,29.6791914 112.332153,29.4057539 112.670694,29.1974206 C113.009236,28.9890873 113.406371,28.8881758 113.862101,28.8946862 C114.31783,28.9011967 114.835408,29.0509362 115.414835,29.343905 C115.994262,29.6368737 116.629028,30.1218998 117.319132,30.7989831 L117.319132,30.7989831 L117.319132,31.2677331 C117.319132,31.6843998 117.188924,32.1173425 116.928507,32.5665612 C116.66809,33.01578 116.336059,33.4291914 115.932413,33.8067956 C115.528767,34.1843998 115.092569,34.4936446 114.623819,34.73453 C114.155069,34.9754154 113.712361,35.0958581 113.295694,35.0958581 Z M136.560451,36.4239831 C136.898993,36.4239831 137.257066,36.3784102 137.63467,36.2872644 C138.012274,36.1961185 138.360582,36.0528894 138.679592,35.8575769 C138.998602,35.6622644 139.262274,35.4181237 139.470608,35.125155 C139.678941,34.8321862 139.783108,34.4838789 139.783108,34.0802331 C139.783108,33.5463789 139.672431,33.1134362 139.451076,32.781405 C139.229722,32.4493737 138.930243,32.1857019 138.552639,31.9903894 C138.175035,31.7950769 137.751858,31.6551029 137.283108,31.5704675 C136.814358,31.4858321 136.329332,31.4207279 135.828029,31.375155 C135.326727,31.3295821 134.838446,31.2807539 134.363186,31.2286706 C133.887925,31.1765873 133.468003,31.0919519 133.10342,30.9747644 C132.738837,30.8575769 132.442613,30.6915612 132.214748,30.4767175 C131.986884,30.2618737 131.872951,29.9591394 131.872951,29.5685144 C131.84691,29.3471602 131.92829,29.1518477 132.117092,28.9825769 C132.305894,28.813306 132.55329,28.6765873 132.859279,28.5724206 C133.165269,28.4682539 133.503811,28.3998946 133.874904,28.3673425 C134.245998,28.3347904 134.594306,28.3478112 134.919826,28.406405 C135.245347,28.4649987 135.531806,28.5659102 135.779201,28.7091394 C136.026597,28.8523685 136.176337,29.047681 136.22842,29.2950769 C136.085191,29.5424727 136.010321,29.7475508 136.003811,29.9103112 C135.9973,30.0730717 136.026597,30.1967696 136.091701,30.281405 C136.156806,30.3660404 136.247951,30.4116133 136.365139,30.4181237 C136.482326,30.4246342 136.596259,30.3855717 136.706936,30.3009362 C136.817613,30.2163008 136.905503,30.0893477 136.970608,29.9200769 C137.035712,29.750806 137.055243,29.5359623 137.029201,29.2755456 C137.016181,28.8328373 136.863186,28.4617435 136.570217,28.1622644 C136.277248,27.8627852 135.912665,27.6446862 135.476467,27.5079675 C135.040269,27.3712487 134.561753,27.3061446 134.04092,27.312655 C133.520087,27.3191654 133.02855,27.3972904 132.566311,27.54703 C132.104071,27.6967696 131.706936,27.9116133 131.374904,28.1915612 C131.042873,28.4715092 130.837795,28.8198164 130.75967,29.2364831 C130.772691,29.8093998 130.889878,30.2781498 131.111233,30.6427331 C131.332587,31.0073164 131.625556,31.2937748 131.990139,31.5021081 C132.354722,31.7104414 132.768134,31.8634362 133.230373,31.9610925 C133.692613,32.0587487 134.164618,32.1336185 134.646389,32.1857019 C135.12816,32.2377852 135.59691,32.2866133 136.052639,32.3321862 C136.508368,32.3777592 136.918524,32.4591394 137.283108,32.5763269 C137.647691,32.6935144 137.937404,32.85953 138.152248,33.0743737 C138.367092,33.2892175 138.468003,33.5854414 138.454983,33.9630456 C138.454983,34.3536706 138.331285,34.6433842 138.083889,34.8321862 C137.836493,35.0209883 137.537014,35.1511967 137.185451,35.2228112 C136.833889,35.2944258 136.462795,35.3269779 136.07217,35.3204675 C135.681545,35.3139571 135.349514,35.3107019 135.076076,35.3107019 C134.724514,35.3107019 134.438056,35.3041914 134.216701,35.2911706 C133.995347,35.2781498 133.800035,35.2455977 133.630764,35.1935144 C133.461493,35.141431 133.275946,35.0698164 133.074123,34.9786706 C132.8723,34.8875248 132.602118,34.7703373 132.263576,34.6271081 C132.146389,34.5750248 132.035712,34.5099206 131.931545,34.4317956 C131.827378,34.3536706 131.726467,34.2722904 131.628811,34.187655 C131.531154,34.1030196 131.423733,34.031405 131.306545,33.9728112 C131.189358,33.9142175 131.07217,33.8849206 130.954983,33.8849206 C130.850816,33.8849206 130.756415,33.8946862 130.671779,33.9142175 C130.587144,33.9337487 130.492743,33.9825769 130.388576,34.0607019 C130.557847,34.4773685 130.779201,34.8224206 131.052639,35.0958581 C131.326076,35.3692956 131.635321,35.593905 131.980373,35.7696862 C132.325425,35.9454675 132.699774,36.0756758 133.10342,36.1603112 C133.507066,36.2449467 133.907457,36.3067956 134.304592,36.3458581 C134.701727,36.3849206 135.092352,36.4077071 135.476467,36.4142175 C135.860582,36.4207279 136.22191,36.4239831 136.560451,36.4239831 Z M144.774861,43.5333581 C144.800903,43.5073164 144.866007,43.4552331 144.970174,43.3771081 C145.061319,43.2859623 145.119913,43.2208581 145.145955,43.1817956 L145.145955,43.1817956 L145.145955,43.1427331 L145.165486,43.1036706 L145.165486,43.1036706 L145.165486,43.0841394 C145.165486,43.0711185 145.162231,43.0548425 145.15572,43.0353112 C145.14921,43.01578 145.145955,42.9929935 145.145955,42.9669519 C145.106892,42.7716394 145.051554,42.4591394 144.979939,42.0294519 C144.908325,41.5997644 144.826944,41.1147383 144.735799,40.5743737 C144.644653,40.0340092 144.550252,39.4643477 144.452595,38.8653894 C144.354939,38.266431 144.267049,37.6967696 144.188924,37.156405 C144.110799,36.6160404 144.039184,36.1277592 143.97408,35.6915612 C143.908976,35.2553633 143.863403,34.9330977 143.837361,34.7247644 C143.837361,34.6987227 143.82434,34.594556 143.798299,34.4122644 C143.772257,34.2299727 143.752726,34.0183842 143.739705,33.7774987 C143.726684,33.5366133 143.710408,33.2957279 143.690877,33.0548425 C143.671345,32.8139571 143.655069,32.6218998 143.642049,32.4786706 L143.642049,32.4786706 L143.642049,32.2442956 C143.642049,32.0489831 143.720174,31.8732019 143.876424,31.7169519 C144.032674,31.5607019 144.231241,31.4207279 144.472127,31.29703 C144.713012,31.1733321 144.976684,31.0691654 145.263142,30.98453 C145.549601,30.8998946 145.823038,30.82828 146.083455,30.7696862 C146.343871,30.7110925 146.574991,30.6687748 146.776814,30.6427331 C146.978637,30.6166914 147.10559,30.6036706 147.157674,30.6036706 C147.548299,30.6036706 147.938924,30.6622644 148.329549,30.7794519 C148.720174,30.8966394 149.071736,31.062655 149.384236,31.2774987 C149.696736,31.4923425 149.950642,31.7625248 150.145955,32.0880456 C150.341267,32.4135664 150.438924,32.797681 150.438924,33.2403894 C150.438924,33.5398685 150.328246,33.7872644 150.106892,33.9825769 C149.885538,34.1778894 149.621866,34.3308842 149.315877,34.4415612 C149.009887,34.5522383 148.684366,34.6271081 148.339314,34.6661706 C147.994262,34.7052331 147.717569,34.7247644 147.509236,34.7247644 C147.222778,34.7247644 146.955851,34.6661706 146.708455,34.5489831 C146.448038,34.4448164 146.187621,34.3308842 145.927205,34.2071862 C145.666788,34.0834883 145.409627,33.9663008 145.15572,33.8556237 C144.901814,33.7449467 144.638142,33.6896081 144.364705,33.6896081 C144.364705,34.2104414 144.481892,34.6140873 144.716267,34.9005456 C144.950642,35.1870039 145.250121,35.4018477 145.614705,35.5450769 C145.979288,35.688306 146.379679,35.7794519 146.815877,35.8185144 C147.252075,35.8575769 147.678507,35.8771081 148.095174,35.8771081 C148.524861,35.8771081 148.944783,35.8380456 149.354939,35.7599206 C149.765095,35.6817956 150.139444,35.5483321 150.477986,35.35953 C150.816528,35.1707279 151.083455,34.9103112 151.278767,34.57828 C151.47408,34.2462487 151.571736,33.8198164 151.571736,33.2989831 C151.571736,32.7000248 151.448038,32.1661706 151.200642,31.6974206 C150.953246,31.2286706 150.621215,30.8315352 150.204549,30.5060144 C149.787882,30.1804935 149.315877,29.9265873 148.788533,29.7442956 C148.261189,29.5620039 147.717569,29.4708581 147.157674,29.4708581 C146.467569,29.4708581 145.806762,29.5489831 145.175252,29.7052331 C144.543741,29.8614831 143.990356,30.1088789 143.515095,30.4474206 C143.039835,30.7859623 142.658976,31.235181 142.372517,31.7950769 C142.086059,32.3549727 141.94283,33.0450769 141.94283,33.8653894 C141.94283,34.0086185 141.965616,34.2560144 142.011189,34.6075769 C142.056762,34.9591394 142.125121,35.375806 142.216267,35.8575769 C142.307413,36.3393477 142.41158,36.860181 142.528767,37.4200769 C142.645955,37.9799727 142.776163,38.5463789 142.919392,39.1192956 C143.062621,39.6922123 143.209106,40.2455977 143.358845,40.7794519 C143.508585,41.313306 143.658325,41.7853112 143.808064,42.1954675 C143.957804,42.6056237 144.104288,42.9311446 144.247517,43.17203 C144.390746,43.4129154 144.527465,43.5333581 144.657674,43.5333581 L144.657674,43.5333581 L144.774861,43.5333581 Z M159.102552,36.4239831 C159.415052,36.4239831 159.747083,36.3979414 160.098646,36.3458581 C160.450208,36.2937748 160.805026,36.2123946 161.163099,36.1017175 C161.521172,35.9910404 161.859713,35.844556 162.178724,35.6622644 C162.497734,35.4799727 162.761406,35.2455977 162.96974,34.9591394 L162.96974,34.9591394 L159.473646,35.1935144 C158.666354,35.1544519 157.989271,35.0600508 157.442396,34.9103112 C156.895521,34.7605717 156.443047,34.5717696 156.084974,34.343905 C155.726901,34.1160404 155.453463,33.8523685 155.264661,33.5528894 C155.075859,33.2534102 154.939141,32.9409102 154.854505,32.6153894 C154.76987,32.2898685 154.721042,31.9578373 154.708021,31.6192956 C154.695,31.2807539 154.68849,30.9422123 154.68849,30.6036706 C154.68849,30.1609623 154.760104,29.7377852 154.903333,29.3341394 C155.046562,28.9304935 155.248385,28.562655 155.508802,28.2306237 C155.769219,27.8985925 156.084974,27.6284102 156.456068,27.4200769 C156.827161,27.2117435 157.240573,27.0880456 157.696302,27.0489831 C157.98276,27.0229414 158.239922,27.0685144 158.467786,27.1857019 C158.695651,27.3028894 158.894219,27.4591394 159.06349,27.6544519 C159.23276,27.8497644 159.359713,28.0743737 159.444349,28.32828 C159.528984,28.5821862 159.571302,28.8393477 159.571302,29.0997644 C159.571302,29.3471602 159.441094,29.5978112 159.180677,29.8517175 C158.92026,30.1056237 158.611016,30.3302331 158.252943,30.5255456 C157.89487,30.7208581 157.543307,30.8803633 157.198255,31.0040612 C156.853203,31.1277592 156.589531,31.1896081 156.40724,31.1896081 C156.09474,31.1375248 155.847344,31.0984623 155.665052,31.0724206 C155.48276,31.0593998 155.346042,31.062655 155.254896,31.0821862 C155.16375,31.1017175 155.108411,31.1342696 155.08888,31.1798425 C155.069349,31.2254154 155.059583,31.2807539 155.059583,31.3458581 C155.059583,31.5541914 155.098646,31.7104414 155.176771,31.8146081 C155.254896,31.9187748 155.359062,31.9968998 155.489271,32.0489831 C155.619479,32.1010664 155.765963,32.1271081 155.928724,32.1271081 L155.928724,32.1271081 L156.40724,32.1271081 C156.823906,32.1271081 157.273125,32.0587487 157.754896,31.92203 C158.236667,31.7853112 158.685885,31.5899987 159.102552,31.3360925 C159.519219,31.0821862 159.864271,30.766431 160.137708,30.3888269 C160.411146,30.0112227 160.547865,29.5880456 160.547865,29.1192956 C160.547865,28.7286706 160.508802,28.3640873 160.430677,28.0255456 C160.339531,27.6739831 160.193047,27.3647383 159.991224,27.0978112 C159.789401,26.8308842 159.528984,26.6062748 159.209974,26.4239831 C158.890963,26.2416914 158.516615,26.1245039 158.086927,26.0724206 C157.35776,26.0724206 156.716484,26.2123946 156.163099,26.4923425 C155.609713,26.7722904 155.140963,27.1466394 154.756849,27.6153894 C154.372734,28.0841394 154.079766,28.6277592 153.877943,29.2462487 C153.67612,29.8647383 153.575208,30.5125248 153.575208,31.1896081 C153.575208,31.9968998 153.721693,32.7228112 154.014661,33.3673425 C154.30763,34.0118737 154.708021,34.5587487 155.215833,35.0079675 C155.723646,35.4571862 156.309583,35.8054935 156.973646,36.0528894 C157.637708,36.3002852 158.347344,36.4239831 159.102552,36.4239831 Z M170.285712,36.4239831 C170.389878,36.4239831 170.568915,36.4011967 170.822821,36.3556237 C171.076727,36.3100508 171.350165,36.2547123 171.643134,36.1896081 C171.936102,36.1245039 172.242092,36.0431237 172.561102,35.9454675 C172.880113,35.8478112 173.169826,35.7534102 173.430243,35.6622644 C173.69066,35.5711185 173.902248,35.4799727 174.065009,35.3888269 C174.227769,35.297681 174.309149,35.2130456 174.309149,35.1349206 C174.309149,35.0567956 174.302639,34.9786706 174.289618,34.9005456 C174.276597,34.8224206 174.218003,34.7638269 174.113837,34.7247644 L174.113837,34.7247644 L173.986884,34.7247644 C173.92829,34.7247644 173.863186,34.7215092 173.791571,34.7149987 C173.719957,34.7084883 173.651597,34.7052331 173.586493,34.7052331 L173.586493,34.7052331 L173.449774,34.7052331 C173.111233,34.7052331 172.772691,34.7247644 172.434149,34.7638269 C172.095608,34.8028894 171.753811,34.8484623 171.408759,34.9005456 C171.063707,34.9526289 170.715399,34.9982019 170.363837,35.0372644 C170.012274,35.0763269 169.654201,35.0958581 169.289618,35.0958581 C169.068264,35.0958581 168.775295,35.0698164 168.410712,35.0177331 C168.046128,34.9656498 167.688056,34.8712487 167.336493,34.73453 C166.984931,34.5978112 166.685451,34.42203 166.438056,34.2071862 C166.19066,33.9923425 166.066962,33.7286706 166.066962,33.4161706 C166.066962,33.1297123 166.135321,32.8790612 166.27204,32.6642175 C166.408759,32.4493737 166.59105,32.2638269 166.818915,32.1075769 C167.046779,31.9513269 167.307196,31.8178633 167.600165,31.7071862 C167.893134,31.5965092 168.182847,31.5086185 168.469306,31.4435144 C168.755764,31.3784102 169.032457,31.3328373 169.299384,31.3067956 C169.566311,31.2807539 169.797431,31.2677331 169.992743,31.2677331 C170.175035,31.3067956 170.40941,31.3686446 170.695868,31.45328 C170.982326,31.5379154 171.291571,31.687655 171.623602,31.9024987 C171.955634,32.1173425 172.29092,32.4135664 172.629462,32.7911706 C172.968003,33.1687748 173.273993,33.6635664 173.547431,34.2755456 L173.547431,34.2755456 L173.645087,34.2950769 C173.69717,34.3080977 173.762274,34.3178633 173.840399,34.3243737 C173.918524,34.3308842 173.990139,34.3373946 174.055243,34.343905 C174.120347,34.3504154 174.15941,34.3536706 174.172431,34.3536706 C174.237535,33.8328373 174.231024,33.2729414 174.152899,32.6739831 C174.087795,32.1010664 173.954332,31.531405 173.752509,30.9649987 C173.550686,30.3985925 173.300035,29.8517175 173.000556,29.3243737 C172.701076,28.79703 172.352769,28.3315352 171.955634,27.9278894 C171.558498,27.5242435 171.1223,27.1889571 170.64704,26.92203 C170.171779,26.6551029 169.673733,26.4955977 169.152899,26.4435144 C168.944566,26.4435144 168.745998,26.4728112 168.557196,26.531405 C168.368394,26.5899987 168.199123,26.6713789 168.049384,26.7755456 C167.899644,26.8797123 167.782457,27.016431 167.697821,27.1857019 C167.613186,27.3549727 167.570868,27.5567956 167.570868,27.7911706 C167.570868,27.8041914 167.593654,27.8302331 167.639227,27.8692956 C167.6848,27.9083581 167.720608,27.9409102 167.746649,27.9669519 C167.75967,27.9799727 167.772691,27.9929935 167.785712,28.0060144 C167.785712,28.0190352 167.798733,28.0255456 167.824774,28.0255456 C167.941962,28.0255456 168.042873,28.0027592 168.127509,27.9571862 C168.212144,27.9116133 168.300035,27.85953 168.391181,27.8009362 C168.482326,27.7423425 168.576727,27.6935144 168.674384,27.6544519 C168.77204,27.6153894 168.885972,27.5958581 169.016181,27.5958581 C169.341701,27.5958581 169.680243,27.6837487 170.031806,27.85953 C170.383368,28.0353112 170.712144,28.2631758 171.018134,28.5431237 C171.324123,28.8230717 171.574774,29.1388269 171.770087,29.4903894 C171.965399,29.8419519 172.063056,30.1870039 172.063056,30.5255456 L172.063056,30.5255456 L172.082587,30.7013269 L172.082587,30.7013269 L172.082587,30.8966394 C171.275295,30.5841394 170.542873,30.3888269 169.885321,30.3107019 C169.227769,30.2325769 168.641832,30.2390873 168.127509,30.3302331 C167.613186,30.4213789 167.167222,30.5743737 166.789618,30.7892175 C166.412014,31.0040612 166.099514,31.2482019 165.852118,31.5216394 C165.604722,31.7950769 165.422431,32.0750248 165.305243,32.3614831 C165.188056,32.6479414 165.122951,32.9018477 165.109931,33.1232019 C165.109931,33.8002852 165.275946,34.3536706 165.607977,34.7833581 C165.940009,35.2130456 166.359931,35.5483321 166.867743,35.7892175 C167.375556,36.0301029 167.935451,36.1961185 168.547431,36.2872644 C169.15941,36.3784102 169.738837,36.4239831 170.285712,36.4239831 Z M177.738403,36.4435144 C177.933715,36.4435144 178.060668,36.3426029 178.119262,36.14078 C178.177856,35.9389571 178.220174,35.7208581 178.246215,35.4864831 C178.272257,35.2521081 178.321085,35.0340092 178.3927,34.8321862 C178.464314,34.6303633 178.604288,34.5294519 178.812621,34.5294519 C178.916788,34.5294519 179.09908,34.6205977 179.359496,34.8028894 C179.619913,34.985181 179.922648,35.1837487 180.2677,35.3985925 C180.612752,35.6134362 180.970825,35.8120039 181.341918,35.9942956 C181.713012,36.1765873 182.041788,36.2677331 182.328246,36.2677331 L182.328246,36.2677331 L182.806762,36.2677331 C182.995564,36.2677331 183.177856,36.2482019 183.353637,36.2091394 C183.529418,36.1700769 183.679158,36.1049727 183.802856,36.0138269 C183.926554,35.922681 183.988403,35.7794519 183.988403,35.5841394 C183.988403,35.4929935 183.981892,35.3953373 183.968871,35.2911706 C183.955851,35.1870039 183.890746,35.1218998 183.773559,35.0958581 C183.565226,35.0958581 183.304809,35.0698164 182.992309,35.0177331 C182.666788,34.9656498 182.321736,34.89078 181.957153,34.7931237 C181.592569,34.6954675 181.227986,34.57828 180.863403,34.4415612 C180.498819,34.3048425 180.170043,34.1388269 179.877075,33.9435144 C179.584106,33.7482019 179.34322,33.5333581 179.154418,33.2989831 C178.965616,33.0646081 178.871215,32.8041914 178.871215,32.5177331 C178.871215,32.3224206 178.939575,32.094556 179.076293,31.8341394 C179.213012,31.5737227 179.382283,31.3035404 179.584106,31.0235925 C179.785929,30.7436446 180.020304,30.453931 180.287231,30.1544519 C180.554158,29.8549727 180.821085,29.5685144 181.088012,29.2950769 C181.354939,29.0216394 181.60559,28.7677331 181.839965,28.5333581 C182.07434,28.2989831 182.282674,28.110181 182.464965,27.9669519 C182.477986,27.8237227 182.464965,27.6967696 182.425903,27.5860925 C182.38684,27.4754154 182.276163,27.4200769 182.093871,27.4200769 C181.807413,27.4200769 181.553507,27.5014571 181.332153,27.6642175 C181.110799,27.8269779 180.908976,28.0255456 180.726684,28.2599206 C180.544392,28.4942956 180.368611,28.7514571 180.19934,29.031405 C180.030069,29.3113529 179.857543,29.5717696 179.681762,29.812655 C179.505981,30.0535404 179.320434,30.2521081 179.125121,30.4083581 C178.929809,30.5646081 178.701944,30.6427331 178.441528,30.6427331 L178.441528,30.6427331 L178.295043,30.6427331 C178.223429,30.6427331 178.174601,30.6297123 178.148559,30.6036706 C178.096476,30.3302331 178.031371,29.9461185 177.953246,29.4513269 C177.862101,28.9565352 177.761189,28.4291914 177.650512,27.8692956 C177.539835,27.3093998 177.412882,26.7592696 177.269653,26.218905 C177.126424,25.6785404 176.983194,25.2260664 176.839965,24.8614831 C176.696736,24.4968998 176.556762,24.26578 176.420043,24.1681237 C176.283325,24.0704675 176.156371,24.1778894 176.039184,24.4903894 C176.091267,25.0242435 176.172648,25.610181 176.283325,26.2482019 C176.394002,26.8862227 176.511189,27.5372644 176.634887,28.2013269 C176.758585,28.8653894 176.875773,29.5327071 176.98645,30.20328 C177.097127,30.8738529 177.171996,31.5086185 177.211059,32.1075769 L177.211059,32.1075769 L177.211059,32.2735925 C177.211059,32.3712487 177.214314,32.4884362 177.220825,32.625155 C177.227335,32.7618737 177.23059,32.8953373 177.23059,33.0255456 L177.23059,33.0255456 L177.23059,33.6896081 C177.23059,33.8458581 177.227335,33.9955977 177.220825,34.1388269 C177.214314,34.282056 177.211059,34.4090092 177.211059,34.5196862 L177.211059,34.5196862 L177.211059,34.7247644 C177.211059,34.750806 177.204549,34.8191654 177.191528,34.9298425 C177.178507,35.0405196 177.158976,35.1609623 177.132934,35.2911706 C177.106892,35.4213789 177.087361,35.5418217 177.07434,35.6524987 C177.061319,35.7631758 177.054809,35.8315352 177.054809,35.8575769 C177.054809,36.0659102 177.126424,36.2156498 177.269653,36.3067956 C177.412882,36.3979414 177.569132,36.4435144 177.738403,36.4435144 Z M191.265312,36.4239831 C191.577812,36.4239831 191.909844,36.3979414 192.261406,36.3458581 C192.612969,36.2937748 192.967786,36.2123946 193.325859,36.1017175 C193.683932,35.9910404 194.022474,35.844556 194.341484,35.6622644 C194.660495,35.4799727 194.924167,35.2455977 195.1325,34.9591394 L195.1325,34.9591394 L191.636406,35.1935144 C190.829115,35.1544519 190.152031,35.0600508 189.605156,34.9103112 C189.058281,34.7605717 188.605807,34.5717696 188.247734,34.343905 C187.889661,34.1160404 187.616224,33.8523685 187.427422,33.5528894 C187.23862,33.2534102 187.101901,32.9409102 187.017266,32.6153894 C186.93263,32.2898685 186.883802,31.9578373 186.870781,31.6192956 C186.85776,31.2807539 186.85125,30.9422123 186.85125,30.6036706 C186.85125,30.1609623 186.922865,29.7377852 187.066094,29.3341394 C187.209323,28.9304935 187.411146,28.562655 187.671562,28.2306237 C187.931979,27.8985925 188.247734,27.6284102 188.618828,27.4200769 C188.989922,27.2117435 189.403333,27.0880456 189.859062,27.0489831 C190.145521,27.0229414 190.402682,27.0685144 190.630547,27.1857019 C190.858411,27.3028894 191.056979,27.4591394 191.22625,27.6544519 C191.395521,27.8497644 191.522474,28.0743737 191.607109,28.32828 C191.691745,28.5821862 191.734062,28.8393477 191.734062,29.0997644 C191.734062,29.3471602 191.603854,29.5978112 191.343437,29.8517175 C191.083021,30.1056237 190.773776,30.3302331 190.415703,30.5255456 C190.05763,30.7208581 189.706068,30.8803633 189.361016,31.0040612 C189.015963,31.1277592 188.752292,31.1896081 188.57,31.1896081 C188.2575,31.1375248 188.010104,31.0984623 187.827812,31.0724206 C187.645521,31.0593998 187.508802,31.062655 187.417656,31.0821862 C187.32651,31.1017175 187.271172,31.1342696 187.251641,31.1798425 C187.232109,31.2254154 187.222344,31.2807539 187.222344,31.3458581 C187.222344,31.5541914 187.261406,31.7104414 187.339531,31.8146081 C187.417656,31.9187748 187.521823,31.9968998 187.652031,32.0489831 C187.78224,32.1010664 187.928724,32.1271081 188.091484,32.1271081 L188.091484,32.1271081 L188.57,32.1271081 C188.986667,32.1271081 189.435885,32.0587487 189.917656,31.92203 C190.399427,31.7853112 190.848646,31.5899987 191.265312,31.3360925 C191.681979,31.0821862 192.027031,30.766431 192.300469,30.3888269 C192.573906,30.0112227 192.710625,29.5880456 192.710625,29.1192956 C192.710625,28.7286706 192.671562,28.3640873 192.593437,28.0255456 C192.502292,27.6739831 192.355807,27.3647383 192.153984,27.0978112 C191.952161,26.8308842 191.691745,26.6062748 191.372734,26.4239831 C191.053724,26.2416914 190.679375,26.1245039 190.249687,26.0724206 C189.520521,26.0724206 188.879245,26.2123946 188.325859,26.4923425 C187.772474,26.7722904 187.303724,27.1466394 186.919609,27.6153894 C186.535495,28.0841394 186.242526,28.6277592 186.040703,29.2462487 C185.83888,29.8647383 185.737969,30.5125248 185.737969,31.1896081 C185.737969,31.9968998 185.884453,32.7228112 186.177422,33.3673425 C186.470391,34.0118737 186.870781,34.5587487 187.378594,35.0079675 C187.886406,35.4571862 188.472344,35.8054935 189.136406,36.0528894 C189.800469,36.3002852 190.510104,36.4239831 191.265312,36.4239831 Z M199.050035,36.4239831 C199.232326,36.4239831 199.395087,36.3491133 199.538316,36.1993737 C199.681545,36.0496342 199.75316,35.9096602 199.75316,35.7794519 C199.727118,35.4278894 199.668524,35.0828373 199.577378,34.7442956 C199.486233,34.4057539 199.385321,34.0639571 199.274644,33.718905 C199.163967,33.3738529 199.046779,33.0288008 198.923082,32.6837487 C198.799384,32.3386967 198.698472,31.9936446 198.620347,31.6485925 C198.542222,31.3035404 198.496649,30.9487227 198.483628,30.5841394 C198.470608,30.219556 198.50967,29.8484623 198.600816,29.4708581 C198.809149,29.1323164 199.050035,28.8979414 199.323472,28.7677331 C199.583889,28.6114831 199.863837,28.5268477 200.163316,28.5138269 C200.462795,28.500806 200.775295,28.5268477 201.100816,28.5919519 C201.426337,28.657056 201.742092,28.735181 202.048082,28.8263269 C202.354071,28.9174727 202.64704,28.9923425 202.926988,29.0509362 C203.206936,29.10953 203.451076,29.125806 203.65941,29.0997644 C203.65941,28.891431 203.639878,28.7221602 203.600816,28.5919519 C203.561753,28.4617435 203.506415,28.3510664 203.4348,28.2599206 C203.363186,28.1687748 203.285061,28.0873946 203.200425,28.01578 C203.11579,27.9441654 203.021389,27.8692956 202.917222,27.7911706 C202.708889,27.7260664 202.526597,27.6707279 202.370347,27.625155 C202.214097,27.5795821 202.067613,27.5405196 201.930894,27.5079675 C201.794175,27.4754154 201.657457,27.4526289 201.520738,27.4396081 C201.384019,27.4265873 201.224514,27.4200769 201.042222,27.4200769 C200.794826,27.4200769 200.54092,27.4526289 200.280503,27.5177331 C200.020087,27.5828373 199.762925,27.6642175 199.509019,27.7618737 C199.255113,27.85953 199.004462,27.9636967 198.757066,28.0743737 C198.50967,28.1850508 198.268785,28.2794519 198.03441,28.3575769 C198.008368,28.3315352 197.943264,28.2989831 197.839097,28.2599206 C197.734931,28.2208581 197.669826,28.1948164 197.643785,28.1817956 L197.643785,28.1817956 L197.604722,28.1817956 C197.578681,28.1817956 197.56566,28.1785404 197.56566,28.17203 C197.56566,28.1655196 197.559149,28.1622644 197.546128,28.1622644 C197.533108,28.1622644 197.526597,28.1655196 197.526597,28.17203 C197.526597,28.1785404 197.520087,28.1817956 197.507066,28.1817956 L197.507066,28.1817956 L197.468003,28.1817956 C197.389878,28.2599206 197.33454,28.3510664 197.301988,28.4552331 C197.269436,28.5593998 197.249904,28.6700769 197.243394,28.7872644 C197.236884,28.9044519 197.240139,29.0183842 197.25316,29.1290612 C197.266181,29.2397383 197.272691,29.3406498 197.272691,29.4317956 C197.298733,29.9135664 197.354071,30.4506758 197.438707,31.0431237 C197.523342,31.6355717 197.637274,32.2442956 197.780503,32.8692956 C197.923733,33.4942956 198.099514,34.1127852 198.307847,34.7247644 C198.516181,35.3367435 198.763576,35.9031498 199.050035,36.4239831 Z M211.561319,36.4239831 C211.899861,36.4239831 212.257934,36.3784102 212.635538,36.2872644 C213.013142,36.1961185 213.36145,36.0528894 213.68046,35.8575769 C213.99947,35.6622644 214.263142,35.4181237 214.471476,35.125155 C214.679809,34.8321862 214.783976,34.4838789 214.783976,34.0802331 C214.783976,33.5463789 214.673299,33.1134362 214.451944,32.781405 C214.23059,32.4493737 213.931111,32.1857019 213.553507,31.9903894 C213.175903,31.7950769 212.752726,31.6551029 212.283976,31.5704675 C211.815226,31.4858321 211.3302,31.4207279 210.828898,31.375155 C210.327595,31.3295821 209.839314,31.2807539 209.364054,31.2286706 C208.888793,31.1765873 208.468871,31.0919519 208.104288,30.9747644 C207.739705,30.8575769 207.443481,30.6915612 207.215616,30.4767175 C206.987752,30.2618737 206.873819,29.9591394 206.873819,29.5685144 C206.847778,29.3471602 206.929158,29.1518477 207.11796,28.9825769 C207.306762,28.813306 207.554158,28.6765873 207.860148,28.5724206 C208.166137,28.4682539 208.504679,28.3998946 208.875773,28.3673425 C209.246866,28.3347904 209.595174,28.3478112 209.920694,28.406405 C210.246215,28.4649987 210.532674,28.5659102 210.780069,28.7091394 C211.027465,28.8523685 211.177205,29.047681 211.229288,29.2950769 C211.086059,29.5424727 211.011189,29.7475508 211.004679,29.9103112 C210.998168,30.0730717 211.027465,30.1967696 211.092569,30.281405 C211.157674,30.3660404 211.248819,30.4116133 211.366007,30.4181237 C211.483194,30.4246342 211.597127,30.3855717 211.707804,30.3009362 C211.818481,30.2163008 211.906371,30.0893477 211.971476,29.9200769 C212.03658,29.750806 212.056111,29.5359623 212.030069,29.2755456 C212.017049,28.8328373 211.864054,28.4617435 211.571085,28.1622644 C211.278116,27.8627852 210.913533,27.6446862 210.477335,27.5079675 C210.041137,27.3712487 209.562621,27.3061446 209.041788,27.312655 C208.520955,27.3191654 208.029418,27.3972904 207.567179,27.54703 C207.104939,27.6967696 206.707804,27.9116133 206.375773,28.1915612 C206.043741,28.4715092 205.838663,28.8198164 205.760538,29.2364831 C205.773559,29.8093998 205.890746,30.2781498 206.112101,30.6427331 C206.333455,31.0073164 206.626424,31.2937748 206.991007,31.5021081 C207.35559,31.7104414 207.769002,31.8634362 208.231241,31.9610925 C208.693481,32.0587487 209.165486,32.1336185 209.647257,32.1857019 C210.129028,32.2377852 210.597778,32.2866133 211.053507,32.3321862 C211.509236,32.3777592 211.919392,32.4591394 212.283976,32.5763269 C212.648559,32.6935144 212.938273,32.85953 213.153116,33.0743737 C213.36796,33.2892175 213.468871,33.5854414 213.455851,33.9630456 C213.455851,34.3536706 213.332153,34.6433842 213.084757,34.8321862 C212.837361,35.0209883 212.537882,35.1511967 212.186319,35.2228112 C211.834757,35.2944258 211.463663,35.3269779 211.073038,35.3204675 C210.682413,35.3139571 210.350382,35.3107019 210.076944,35.3107019 C209.725382,35.3107019 209.438924,35.3041914 209.217569,35.2911706 C208.996215,35.2781498 208.800903,35.2455977 208.631632,35.1935144 C208.462361,35.141431 208.276814,35.0698164 208.074991,34.9786706 C207.873168,34.8875248 207.602986,34.7703373 207.264444,34.6271081 C207.147257,34.5750248 207.03658,34.5099206 206.932413,34.4317956 C206.828246,34.3536706 206.727335,34.2722904 206.629679,34.187655 C206.532023,34.1030196 206.424601,34.031405 206.307413,33.9728112 C206.190226,33.9142175 206.073038,33.8849206 205.955851,33.8849206 C205.851684,33.8849206 205.757283,33.8946862 205.672648,33.9142175 C205.588012,33.9337487 205.493611,33.9825769 205.389444,34.0607019 C205.558715,34.4773685 205.780069,34.8224206 206.053507,35.0958581 C206.326944,35.3692956 206.636189,35.593905 206.981241,35.7696862 C207.326293,35.9454675 207.700642,36.0756758 208.104288,36.1603112 C208.507934,36.2449467 208.908325,36.3067956 209.30546,36.3458581 C209.702595,36.3849206 210.09322,36.4077071 210.477335,36.4142175 C210.86145,36.4207279 211.222778,36.4239831 211.561319,36.4239831 Z" id="Confirmedspeakers" stroke="#4637F7" stroke-width="0.5" fill="#354BF0" fill-rule="nonzero" transform="translate(121.231024, 32.693514) rotate(2.000000) translate(-121.231024, -32.693514) "></path>
                <polygon id="Path-5" fill="#FFFFFF" points="116.694039 56.7571568 111.167056 107.85579 116.694039 106.806458 128.015207 56.7571568"></polygon>
            </g>
        </g>
    </g>
</svg>