<?xml version="1.0" encoding="UTF-8"?>
<svg width="40px" height="40px" viewBox="0 0 40 40" version="1.1" xmlns="http://www.w3.org/2000/svg" xmlns:xlink="http://www.w3.org/1999/xlink">
    <!-- Generator: Sketch 61.2 (89653) - https://sketch.com -->
    <title>hideout</title>
    <desc>Created with Sketch.</desc>
    <g id="Page-1" stroke="none" stroke-width="1" fill="none" fill-rule="evenodd" opacity="0.0544317336">
        <g id="hideout" fill="#000000" fill-rule="nonzero">
            <path d="M0,38.59 L2.83,35.76 L4.24,37.17 L1.41,40 L0,40 L0,38.59 Z M0,1.4 L2.83,4.23 L4.24,2.82 L1.41,0 L0,0 L0,1.41 L0,1.4 Z M38.59,40 L35.76,37.17 L37.17,35.76 L40,38.59 L40,40 L38.59,40 Z M40,1.41 L37.17,4.24 L35.76,2.83 L38.59,0 L40,0 L40,1.41 Z M20,18.6 L22.83,15.77 L24.24,17.18 L21.41,20 L24.24,22.83 L22.83,24.24 L20,21.41 L17.17,24.24 L15.76,22.83 L18.59,20 L15.76,17.17 L17.17,15.76 L20,18.59 L20,18.6 Z" id="Combined-Shape"></path>
        </g>
    </g>
</svg>