<?xml version="1.0" encoding="UTF-8"?>
<svg width="32px" height="27px" viewBox="0 0 32 27" version="1.1" xmlns="http://www.w3.org/2000/svg" xmlns:xlink="http://www.w3.org/1999/xlink">
    <!-- Generator: Sketch 61.2 (89653) - https://sketch.com -->
    <title>icon-twitter</title>
    <desc>Created with Sketch.</desc>
    <g id="Page-1" stroke="none" stroke-width="1" fill="none" fill-rule="evenodd">
        <g id="home" transform="translate(-1469.000000, -59.000000)" fill="#FFFFFF" fill-rule="nonzero">
            <g id="icon-twitter" transform="translate(1469.500000, 59.472633)">
                <path d="M31.4601891,3.02353455 C30.3022545,3.53658182 29.05984,3.88456727 27.7544727,4.03991273 C29.08736,3.24171636 30.1076364,1.97573818 30.5912436,0.471796364 C29.3409164,1.21093818 27.9608436,1.74766545 26.4903564,2.03863273 C25.3128145,0.782429091 23.6378764,0 21.7800727,0 C18.2159127,0 15.3260218,2.88989091 15.3260218,6.45207273 C15.3260218,6.95726545 15.38304,7.45070545 15.49312,7.92256 C10.1302109,7.65323636 5.37472,5.08381091 2.19194182,1.17952 C1.63554909,2.13102545 1.31904,3.23973818 1.31904,4.42327273 C1.31904,6.6624 2.45928727,8.63813818 4.18932364,9.79403636 C3.13163636,9.75866182 2.13690182,9.46775273 1.26603636,8.98408727 L1.26603636,9.06472727 C1.26603636,12.1904873 3.49143273,14.7992436 6.44218182,15.3929309 C5.90155636,15.5384436 5.33149091,15.6190255 4.74170182,15.6190255 C4.32494545,15.6190255 3.92192,15.5777745 3.52680727,15.4991127 C4.34850909,18.0645818 6.73122909,19.93024 9.55426909,19.9813818 C7.34656,21.71136 4.56279273,22.7395491 1.53931636,22.7395491 C1.01835636,22.7395491 0.505192727,22.7080727 0,22.6510545 C2.85643636,24.4852945 6.24762182,25.5547345 9.89242182,25.5547345 C21.7644218,25.5547345 28.2538473,15.7212509 28.2538473,7.19325091 L28.2322036,6.35776 C29.5002182,5.45338182 30.59712,4.31709091 31.4601891,3.02353455 Z" id="twitter-fill"></path>
            </g>
        </g>
    </g>
</svg>