<?xml version="1.0" encoding="UTF-8"?>
<svg width="29px" height="30px" viewBox="0 0 29 30" version="1.1" xmlns="http://www.w3.org/2000/svg" xmlns:xlink="http://www.w3.org/1999/xlink">
    <!-- Generator: Sketch 61.2 (89653) - https://sketch.com -->
    <title>icon-facebook</title>
    <desc>Created with Sketch.</desc>
    <g id="Page-1" stroke="none" stroke-width="1" fill="none" fill-rule="evenodd">
        <g id="home" transform="translate(-1411.000000, -57.000000)" fill="#FFFFFF" fill-rule="nonzero">
            <g id="icon-facebook" transform="translate(1411.000000, 57.772633)">
                <path d="M29.0000002,14.5 C28.9987854,6.78672751 22.9592193,0.424421663 15.2564501,0.0220282546 C7.55368089,-0.380365153 0.884063517,5.31801172 0.0791646703,12.9891728 C-0.725734177,20.6603338 4.6158404,27.6189886 12.234375,28.8241875 L12.234375,18.6914062 L8.5531875,18.6914062 L8.5531875,14.5 L12.234375,14.5 L12.234375,11.3054687 C12.234375,7.67140625 14.3994063,5.6640625 17.7108437,5.6640625 C18.7983475,5.67914495 19.8832969,5.77364641 20.9570312,5.9468125 L20.9570312,9.515625 L19.1282187,9.515625 C18.4969412,9.43178428 17.8617962,9.63959325 17.4021623,10.0803622 C16.9425284,10.5211312 16.7082988,11.1470148 16.765625,11.78125 L16.765625,14.5 L20.7875625,14.5 L20.144125,18.6914062 L16.765625,18.6914062 L16.765625,28.8241875 C23.8123314,27.709448 29.0011234,21.6343334 29.0000002,14.5 Z" id="Path"></path>
            </g>
        </g>
    </g>
</svg>