<?xml version="1.0" encoding="UTF-8"?>
<svg width="142px" height="39px" viewBox="0 0 142 39" version="1.1" xmlns="http://www.w3.org/2000/svg" xmlns:xlink="http://www.w3.org/1999/xlink">
    <!-- Generator: Sketch 61.2 (89653) - https://sketch.com -->
    <title>Combined Shape Copy</title>
    <desc>Created with Sketch.</desc>
    <g id="Page-1" stroke="none" stroke-width="1" fill="none" fill-rule="evenodd">
        <g id="home" transform="translate(-71.000000, -44.000000)" fill="#FFFFFF" fill-rule="nonzero">
            <path d="M100.86909,56.7453354 C102.150076,56.7453354 103.378657,56.9200153 104.554835,57.269375 C105.731013,57.6187347 106.761624,58.1311289 107.646668,58.8065577 C108.298807,59.3189519 108.624876,59.9245087 108.624876,60.6232281 C108.624876,61.158913 108.426905,61.6305486 108.030964,62.0381349 C107.635023,62.4457212 107.16921,62.6495144 106.633525,62.6495144 C106.191003,62.6495144 105.783417,62.5097705 105.410766,62.2302828 C104.781919,61.8343418 104.007505,61.5082727 103.087524,61.2520756 C102.167544,60.9958785 101.265031,60.8677799 100.379987,60.8677799 C99.3086168,60.8677799 98.3944589,61.0773957 97.6375129,61.4966274 C96.8805669,61.915859 96.4089313,62.5679971 96.2226061,63.4530417 C96.1993155,63.569495 96.1876701,63.7325295 96.1876701,63.9421453 C96.1876701,64.6175741 96.4322219,65.1823723 96.9213255,65.6365399 C97.4104291,66.0907075 98.0218086,66.4517125 98.755464,66.719555 C99.4891193,66.9873974 100.49644,67.2959985 101.777425,67.6453582 C103.570805,68.1344618 105.026471,68.6177427 106.144422,69.0952009 C107.262373,69.5726592 108.223112,70.2888466 109.026639,71.2437631 C109.830167,72.1986797 110.23193,73.4447293 110.23193,74.981912 C110.23193,76.7520011 109.777763,78.2193119 108.869427,79.3838442 C107.961092,80.5483766 106.767447,81.4043079 105.28849,81.9516381 C103.809534,82.4989683 102.208302,82.7726334 100.484794,82.7726334 C98.9010305,82.7726334 97.3754931,82.5513722 95.9081824,82.1088499 C94.4408716,81.6663276 93.2414033,81.0607708 92.3097774,80.2921795 C91.7042206,79.8030759 91.4014422,79.1509378 91.4014422,78.3357651 C91.4014422,77.7767896 91.5411861,77.287686 91.8206738,76.8684544 C92.3796494,76.3094788 92.9386249,76.0299911 93.4976004,76.0299911 C93.9634134,76.0299911 94.4408716,76.2279616 94.9299752,76.6239026 C95.6752759,77.1362968 96.6301924,77.5671738 97.7947248,77.9165335 C98.9592571,78.2658932 100.077208,78.440573 101.148578,78.440573 C102.382982,78.440573 103.413593,78.1727306 104.240411,77.6370457 C105.067229,77.1013608 105.55051,76.2512522 105.690254,75.0867199 C105.620382,74.4112911 105.335072,73.8523156 104.834323,73.4097933 C104.333574,72.967271 103.716372,72.6120886 102.982716,72.3442462 C102.249061,72.0764038 101.253386,71.7678027 99.9956909,71.418443 C98.2488924,70.9293394 96.8223403,70.4460585 95.7160345,69.9686002 C94.6097288,69.4911419 93.6664576,68.7807772 92.8862209,67.837506 C92.1059843,66.8942348 91.7158659,65.6540079 91.7158659,64.1168252 C91.7158659,63.9072093 91.7391566,63.569495 91.7857379,63.103682 C91.9487724,61.7295339 92.4728119,60.5650015 93.3578565,59.610085 C94.2429011,58.6551685 95.3433842,57.9389811 96.6593057,57.4615228 C97.9752273,56.9840645 99.3784888,56.7453354 100.86909,56.7453354 Z M85.4634918,57.7584786 C86.0923392,57.7584786 86.6338468,57.9506264 87.0880144,58.3349221 C87.542182,58.7192177 87.7692658,59.2607253 87.7692658,59.9594447 L87.7692658,59.9594447 L87.7692658,73.759153 L87.7648627,74.1394426 C87.7032195,76.7734271 86.9943225,78.8185167 85.6381716,80.2747115 C84.2174421,81.8002489 82.0397667,82.5630175 79.1051451,82.5630175 C77.5213811,82.5630175 76.112297,82.2951751 74.8778927,81.7594902 C73.6434884,81.2238053 72.5138921,80.2921795 71.4891036,78.9646126 C71.1630345,78.5686716 71,78.1261493 71,77.6370457 C71,77.0081982 71.2387291,76.4492227 71.7161874,75.9601191 C72.1936457,75.4710156 72.7351532,75.2264638 73.34071,75.2264638 C73.9462668,75.2264638 74.4586611,75.4826609 74.8778927,75.9950551 C75.5067402,76.7869371 76.1763463,77.3459126 76.886711,77.6719817 C77.5970757,77.9980507 78.3481991,78.1610853 79.1400811,78.1610853 C80.3511947,78.1610853 81.3177566,77.8466615 82.0397667,77.2178141 C82.7617767,76.5889666 83.1344271,75.4360796 83.1577177,73.759153 L83.1577177,73.759153 L83.1577177,59.9594447 L83.1645302,59.7545452 C83.2054053,59.1539959 83.4302183,58.6807882 83.8389691,58.3349221 C84.2931367,57.9506264 84.8346443,57.7584786 85.4634918,57.7584786 Z M125.978348,57.234439 C127.515531,57.234439 128.918793,57.4789908 130.188133,57.9680944 C131.457473,58.457198 132.720991,59.24908 133.978686,60.3437404 C134.211592,60.5766468 134.397917,60.8444893 134.537661,61.1472677 C134.677405,61.4500461 134.747277,61.7644698 134.747277,62.0905389 C134.747277,62.742677 134.526016,63.2900072 134.083494,63.7325295 C133.617681,64.1284705 133.105286,64.326441 132.546311,64.326441 C131.894173,64.326441 131.335197,64.0935345 130.869384,63.6277216 C130.193956,62.9057115 129.471946,62.4049626 128.703354,62.1254749 C127.934763,61.8459871 127.026428,61.7062432 125.978348,61.7062432 C124.254841,61.7062432 122.793352,62.0730709 121.593884,62.8067263 C120.394416,63.5403817 119.497726,64.5185888 118.903814,65.7413478 C118.309903,66.9641068 118.012947,68.3091416 118.012947,69.7764524 C118.012947,71.2670538 118.309903,72.6470246 118.903814,73.9163649 C119.497726,75.1857051 120.394416,76.1988483 121.593884,76.9557943 C122.793352,77.7127403 124.254841,78.0912133 125.978348,78.0912133 C127.934763,78.0912133 129.751433,77.3459126 131.42836,75.8553112 C131.824301,75.5525328 132.278468,75.4011436 132.790863,75.4011436 C133.163513,75.4011436 133.518695,75.4826609 133.85641,75.6456954 C134.194124,75.8087299 134.456144,76.0183458 134.642469,76.2745429 C134.968538,76.7170652 135.131573,77.1945234 135.131573,77.7069177 C135.131573,78.3590558 134.84044,78.9762579 134.258173,79.5585241 C133.140222,80.6066032 131.899995,81.3227906 130.537493,81.7070863 C129.17499,82.0913819 127.655275,82.2835298 125.978348,82.2835298 C123.276633,82.2835298 121.005795,81.7245543 119.165834,80.6066032 C117.325873,79.4886521 115.957548,77.9864054 115.060858,76.099863 C114.164168,74.2133206 113.715823,72.1055171 113.715823,69.7764524 C113.715823,67.4706783 114.187458,65.3686974 115.13073,63.4705097 C116.074001,61.572322 117.47144,60.0584299 119.323046,58.9288336 C121.174653,57.7992372 123.393087,57.234439 125.978348,57.234439 Z M149.95198,44.7726334 L150.564376,45.6286913 L150.615388,46.5090065 C151.482561,46.0688491 152.604797,45.9221297 153.522982,46.0199427 C154.288143,46.1177556 154.900265,46.3622875 155.308351,46.7046324 C155.716437,47.0469772 155.818455,47.4382286 155.767444,47.8783859 C155.716437,48.1718247 155.716437,48.3185437 155.665426,48.5630756 L155.359362,49.3944847 C156.481593,50.4215193 157.960898,51.008396 159.797274,51.2529279 C160.868493,51.3996474 162.041735,51.2529279 163.010937,50.9594895 C161.735672,51.9376176 160.511423,52.7690268 159.032118,53.306997 C157.705846,53.6982484 156.226541,53.9427803 154.696224,53.7471548 C153.931068,53.6493419 153.471971,53.4537165 153.06389,53.2091846 C152.604797,52.9157462 152.502774,52.7201203 152.553786,52.4755884 L153.369953,50.1280809 C152.451763,50.0302679 151.431555,50.3237063 150.411342,50.9105831 L150.367084,56.2256334 L151.946255,59.0860454 L161.798199,78.6851248 C161.984524,79.0344845 162.077687,79.4071349 162.077687,79.8030759 C162.077687,80.455214 161.827312,81.0025442 161.326563,81.4450665 C160.825814,81.8875888 160.261016,82.1088499 159.632169,82.1088499 C159.236228,82.1088499 158.875223,82.004042 158.549154,81.7944262 C158.269666,81.6147555 158.032957,81.3580831 157.839027,81.0244089 L157.745626,80.851155 L156.208444,77.7767896 L149.815161,65.3066026 L141.814824,80.851155 C141.418883,81.6896183 140.661937,82.1088499 139.543986,82.1088499 C139.171335,82.1088499 138.891848,82.0855593 138.705522,82.038978 C138.286291,81.8060715 137.948576,81.4974704 137.692379,81.1131748 C137.436182,80.7288791 137.308084,80.3038248 137.308084,79.8380119 C137.308084,79.508061 137.37278,79.1861972 137.502172,78.8724204 L137.587571,78.6851248 L147.614195,59.0860454 L149.265084,56.1906334 L149.313995,45.5308784 L149.95198,44.7726334 Z M167.358787,57.5488627 C167.8246,57.5488627 168.214719,57.6536706 168.529142,57.8632865 C168.843566,58.0729023 169.187103,58.387326 169.559754,58.8065577 L169.559754,58.8065577 L177.245667,69.1825409 L185.211068,58.422262 L185.329158,58.2888701 C185.7353,57.8654038 186.266558,57.6536706 186.922931,57.6536706 C187.528488,57.6536706 188.05835,57.8574638 188.512518,58.2650501 C188.966685,58.6726364 189.193769,59.2374346 189.193769,59.9594447 L189.193769,59.9594447 L189.193769,79.628396 L189.187655,79.8472699 C189.150972,80.4897424 188.949217,81.0048733 188.582389,81.3926625 C188.174803,81.8235395 187.679877,82.038978 187.097611,82.038978 C186.445473,82.038978 185.909788,81.8235395 185.490556,81.3926625 C185.071324,80.9617856 184.861709,80.3736967 184.861709,79.628396 L184.861709,79.628396 L184.861709,66.702087 L179.062338,74.0386408 L178.916392,74.2091862 C178.329302,74.8640806 177.702522,75.1915278 177.036051,75.1915278 C176.314041,75.1915278 175.661903,74.8072321 175.079637,74.0386408 L175.079637,74.0386408 L169.874177,66.702087 L169.874177,79.628396 L169.866666,79.8408067 C169.821599,80.4654619 169.573728,80.9769245 169.123054,81.3751945 C168.622305,81.8177168 168.034216,82.038978 167.358787,82.038978 C166.776521,82.038978 166.281595,81.8235395 165.874009,81.3926625 C165.466422,80.9617856 165.262629,80.3736967 165.262629,79.628396 L165.262629,79.628396 L165.262629,59.9594447 L165.268634,59.7544688 C165.296655,59.2870182 165.422752,58.8953533 165.646925,58.5794739 C165.903122,58.2184688 166.194255,57.956449 166.520324,57.7934145 C166.846393,57.63038 167.125881,57.5488627 167.358787,57.5488627 Z M204.09396,57.5488627 L204.48141,57.5560198 C205.892273,57.6085046 207.195498,57.9496559 208.391085,58.5794739 C209.695361,59.2665479 210.74344,60.2796911 211.535322,61.6189033 C212.327204,62.9581155 212.723145,64.5593475 212.723145,66.4225992 C212.723145,68.1926884 212.327204,69.7298711 211.535322,71.0341473 C210.74344,72.3384235 209.689538,73.328276 208.373617,74.0037048 C207.167355,74.6228478 205.868133,74.958217 204.475951,75.0098122 L204.09396,75.0168479 L198.259653,75.0168479 L198.259653,79.628396 L198.253365,79.8472699 C198.215634,80.4897424 198.008114,81.0048733 197.630806,81.3926625 C197.211574,81.8235395 196.675889,82.038978 196.023751,82.038978 C195.394904,82.038978 194.841751,81.8177168 194.364293,81.3751945 C193.93458,80.9769245 193.698238,80.4654619 193.655267,79.8408067 L193.648105,79.628396 L193.648105,59.9594447 L193.6563,59.7595333 C193.700006,59.231612 193.918535,58.7450962 194.311889,58.2999861 C194.710159,57.8493121 195.212189,57.6014414 195.817978,57.556374 L196.023751,57.5488627 L204.09396,57.5488627 Z M204.09396,61.950795 L198.259653,61.950795 L198.259653,70.6498516 L204.09396,70.6498516 C204.862552,70.6498516 205.567094,70.4518811 206.207587,70.0559401 C206.848079,69.6599991 207.354651,69.1359596 207.727301,68.4838215 C208.099952,67.8316834 208.286277,67.1446093 208.286277,66.4225992 C208.286277,65.1881949 207.87869,64.1342932 207.063518,63.2608939 C206.248345,62.3874946 205.258493,61.950795 204.09396,61.950795 Z" id="Combined-Shape-Copy"></path>
        </g>
    </g>
</svg>