<?xml version="1.0" encoding="UTF-8"?>
<svg width="40px" height="40px" viewBox="0 0 40 40" version="1.1" xmlns="http://www.w3.org/2000/svg" xmlns:xlink="http://www.w3.org/1999/xlink">
    <!-- Generator: Sketch 62 (91390) - https://sketch.com -->
    <title>Group</title>
    <desc>Created with Sketch.</desc>
    <g id="FB" stroke="none" stroke-width="1" fill="none" fill-rule="evenodd">
        <g id="early-bird-fb" transform="translate(-125.000000, -87.000000)">
            <g id="Group" transform="translate(125.000000, 87.000000)">
                <circle id="Oval" fill="#FFFFFF" cx="20" cy="20" r="20"></circle>
                <path d="M19.8358592,3.23687974 L20.3202192,3.91395864 L20.3605654,4.61022316 C21.0464362,4.26209109 21.934042,4.14604681 22.660259,4.22340967 C23.2654449,4.30077252 23.7495883,4.49417927 24.0723544,4.76494887 C24.3951205,5.03571847 24.4758091,5.34516949 24.4354629,5.69330156 C24.3951205,5.92539012 24.3951205,6.04143401 24.3547742,6.23484076 L24.1127006,6.89242424 C25.0003026,7.70473304 26.1703244,8.16890939 27.6227622,8.36231613 C28.4700179,8.47836041 29.3979661,8.36231613 30.1645332,8.13022796 C29.1558925,8.90385533 28.1876019,9.56143881 27.0175801,9.98693373 C25.968597,10.2963848 24.7985752,10.4897915 23.5882072,10.3350662 C22.9830251,10.2577033 22.6199127,10.102978 22.2971505,9.90957126 C21.934042,9.67748309 21.8533495,9.52275738 21.8936957,9.32935064 L22.5392241,7.47264486 C21.8130033,7.39528201 21.0060938,7.62737019 20.1991805,8.09154653 L20.1634668,12.2958797 L21.413184,14.557736 L29.2053468,30.0591663 C29.3527163,30.3354842 29.4264011,30.6302232 29.4264011,30.9433834 C29.4264011,31.4591767 29.2283733,31.8920746 28.8323177,32.2420772 C28.4362622,32.5920798 27.9895484,32.7670811 27.4921763,32.7670811 C27.179016,32.7670811 26.8934876,32.6841857 26.635591,32.518395 C26.3776943,32.3526043 26.1658507,32.1039183 26.00006,31.7723369 L26.00006,31.7723369 L24.7842615,29.34074 L19.7276452,19.4777392 L13.3999668,31.7723369 C13.0868066,32.4354997 12.488118,32.7670811 11.6039009,32.7670811 C11.3091619,32.7670811 11.0881076,32.7486599 10.9407381,32.7118175 C10.6091567,32.5276056 10.3420495,32.2835249 10.1394164,31.9795753 C9.93678335,31.6756257 9.83546681,31.339439 9.83546681,30.9710152 C9.83546681,30.657855 9.90915157,30.3539054 10.0565211,30.0591663 L10.0565211,30.0591663 L17.9868428,14.557736 L19.2934668,12.2668797 L19.33126,3.83659579 L19.8358592,3.23687974 Z" id="Combined-Shape" fill="#1D36EB" fill-rule="nonzero"></path>
            </g>
        </g>
    </g>
</svg>