<?xml version="1.0" encoding="UTF-8"?>
<svg width="44px" height="64px" viewBox="0 0 44 64" version="1.1" xmlns="http://www.w3.org/2000/svg" xmlns:xlink="http://www.w3.org/1999/xlink">
    <!-- Generator: Sketch 61.2 (89653) - https://sketch.com -->
    <title>Combined Shape</title>
    <desc>Created with Sketch.</desc>
    <g id="Page-1" stroke="none" stroke-width="1" fill="none" fill-rule="evenodd">
        <g id="home" transform="translate(-120.000000, -136.000000)" fill="#FFFFFF" fill-rule="nonzero">
            <path d="M141.834928,136.663783 L142.868266,138.10827 L142.954341,139.593687 C144.417584,138.850979 146.31121,138.603409 147.860528,138.768455 C149.151637,138.933502 150.184513,139.346118 150.873105,139.92378 C151.561697,140.501442 151.733839,141.161628 151.647764,141.904336 C151.561697,142.399476 151.561697,142.647045 151.475622,143.059661 L150.95918,144.462555 C152.852798,146.195542 155.348934,147.18582 158.447578,147.598436 C160.255121,147.846006 162.234814,147.598436 163.870215,147.103297 C161.718372,148.753761 159.652612,150.156655 157.156477,151.06441 C154.918567,151.724596 152.422431,152.137211 149.840221,151.807119 C148.54912,151.642072 147.774453,151.31198 147.085869,150.899364 C146.31121,150.404225 146.13906,150.074132 146.225135,149.661516 L147.602311,145.700403 C146.052985,145.535357 144.331517,146.030496 142.610041,147.020774 L142.535,155.990783 L145.200007,160.815801 L161.823878,193.886693 C162.138278,194.476192 162.295477,195.104991 162.295477,195.77309 C162.295477,196.873488 161.873003,197.797037 161.028054,198.543735 C160.183106,199.290434 159.230083,199.663783 158.168984,199.663783 C157.500886,199.663783 156.891737,199.486934 156.341538,199.133234 C155.791339,198.779535 155.339389,198.248986 154.98569,197.541587 L154.98569,197.541587 L152.391894,192.353996 L141.604063,171.312181 L128.104537,197.541587 C127.436438,198.956385 126.15919,199.663783 124.272793,199.663783 C123.643995,199.663783 123.172395,199.624484 122.857996,199.545884 C122.150597,199.152884 121.580748,198.63216 121.148449,197.983711 C120.71615,197.335262 120.5,196.618039 120.5,195.83204 C120.5,195.163941 120.6572,194.515492 120.971599,193.886693 L120.971599,193.886693 L137.89022,160.815801 L140.677,155.929783 L140.758412,137.943223 L141.834928,136.663783 Z" id="Combined-Shape"></path>
        </g>
    </g>
</svg>