<?xml version="1.0" encoding="UTF-8"?>
<svg width="395px" height="150px" viewBox="0 0 395 150" version="1.1" xmlns="http://www.w3.org/2000/svg" xmlns:xlink="http://www.w3.org/1999/xlink">
    <!-- Generator: Sketch 61.2 (89653) - https://sketch.com -->
    <title>Combined Shape</title>
    <desc>Created with Sketch.</desc>
    <g id="Page-1" stroke="none" stroke-width="1" fill="none" fill-rule="evenodd">
        <g id="home" transform="translate(-593.000000, -174.000000)" fill="#FFFFFF" fill-rule="nonzero">
            <path d="M760.873761,309.239621 C762.118404,309.307264 763.295404,309.631954 764.40476,310.213689 C765.514116,310.795425 766.413777,311.637589 767.103742,312.74018 C767.793708,313.842772 768.13869,315.158441 768.13869,316.687188 C768.13869,318.215935 767.790325,319.531604 767.093596,320.634196 C766.396866,321.736787 765.493823,322.572187 764.384467,323.140393 C763.275111,323.7086 762.104876,323.992704 760.873761,323.992704 L760.873761,323.992704 L760.521147,323.999999 C759.35108,323.99944 758.234121,323.750109 757.17027,323.252005 C756.000035,322.704092 755.049641,321.868693 754.31909,320.745808 C753.588538,319.622923 753.223263,318.27005 753.223263,316.687188 C753.223263,315.104326 753.588538,313.751453 754.31909,312.628568 C755.049641,311.505683 756.000035,310.660138 757.17027,310.091931 C758.340506,309.523724 759.575003,309.239621 760.873761,309.239621 Z M744.758254,309.746948 L745.069289,309.754965 C745.886358,309.797723 746.60455,310.01151 747.223865,310.396327 C747.920595,310.829247 748.448215,311.397454 748.806727,312.100948 C749.165238,312.804442 749.344494,313.548522 749.344494,314.333189 C749.344494,315.212556 749.117888,316.017516 748.664675,316.748067 C748.211463,317.478619 747.545172,318.019768 746.665805,318.371515 L746.665805,318.371515 L749.364787,321.658997 L749.451596,321.801613 C749.583126,322.040244 749.64889,322.283574 749.64889,322.5316 C749.64889,322.896876 749.516985,323.204655 749.253175,323.454936 C748.989365,323.705218 748.674822,323.830359 748.309546,323.830359 C747.83604,323.830359 747.430178,323.613899 747.09196,323.18098 L747.09196,323.18098 L744.027702,318.79767 L740.841685,318.79767 L740.841685,322.470721 L740.835185,322.623871 C740.804851,322.971601 740.668349,323.252005 740.425677,323.465083 C740.148338,323.7086 739.827031,323.830359 739.461755,323.830359 C739.096479,323.830359 738.785318,323.715365 738.528272,323.485376 C738.271226,323.255388 738.142703,322.930698 738.142703,322.511307 L738.142703,322.511307 L738.142703,310.984827 L738.149951,310.837599 C738.178941,310.550182 738.294902,310.305008 738.497833,310.102077 C738.734585,309.865325 739.022071,309.746948 739.360289,309.746948 L739.360289,309.746948 L744.758254,309.746948 Z M796.453137,309.62519 C796.710183,309.62519 796.950318,309.696215 797.173542,309.838267 C797.396766,309.980319 797.569257,310.186632 797.691016,310.457207 L797.691016,310.457207 L803.41367,321.841635 L803.472114,321.965017 C803.541381,322.131691 803.576015,322.307024 803.576015,322.491014 C803.576015,322.869819 803.430581,323.187744 803.139713,323.44479 C802.848845,323.701836 802.520773,323.830359 802.155498,323.830359 C801.925509,323.830359 801.715814,323.76948 801.526412,323.647721 C801.337009,323.525962 801.181429,323.343324 801.05967,323.099807 L801.05967,323.099807 L800.166774,321.314015 L792.67862,321.314015 L791.806017,323.099807 L791.738094,323.226597 C791.494353,323.629105 791.07731,323.830359 790.486966,323.830359 C790.270506,323.830359 790.108161,323.81683 789.999931,323.789773 C789.756414,323.654485 789.560248,323.47523 789.411431,323.252005 C789.262615,323.028781 789.188207,322.781882 789.188207,322.511307 C789.188207,322.281319 789.242322,322.058095 789.350552,321.841635 L789.350552,321.841635 L795.174672,310.457207 L795.261526,310.302573 C795.384908,310.106677 795.538594,309.951908 795.722585,309.838267 C795.952574,309.696215 796.196091,309.62519 796.453137,309.62519 Z M824.179083,309.686069 C824.544359,309.686069 824.85552,309.797681 825.112566,310.020905 C825.369612,310.244129 825.498135,310.558672 825.498135,310.964534 L825.498135,310.964534 L825.498135,322.551894 L825.491952,322.699811 C825.463098,323.034964 825.333253,323.300202 825.102419,323.495523 C824.838609,323.718747 824.517302,323.830359 824.138497,323.830359 C823.78675,323.830359 823.478972,323.718747 823.215161,323.495523 C822.951351,323.272299 822.819446,322.957756 822.819446,322.551894 L822.819446,322.551894 L822.819446,310.964534 L822.825787,310.821214 C822.855382,310.495679 822.988555,310.232291 823.225308,310.031052 C823.495882,309.801063 823.813808,309.686069 824.179083,309.686069 Z M836.337437,309.62519 C836.594482,309.62519 836.834617,309.696215 837.057842,309.838267 C837.281066,309.980319 837.453557,310.186632 837.575316,310.457207 L837.575316,310.457207 L843.297969,321.841635 L843.356414,321.965017 C843.425681,322.131691 843.460314,322.307024 843.460314,322.491014 C843.460314,322.869819 843.31488,323.187744 843.024013,323.44479 C842.733145,323.701836 842.405073,323.830359 842.039797,323.830359 C841.809809,323.830359 841.600114,323.76948 841.410711,323.647721 C841.221309,323.525962 841.065729,323.343324 840.94397,323.099807 L840.94397,323.099807 L840.051074,321.314015 L832.56292,321.314015 L831.690317,323.099807 L831.622394,323.226597 C831.378653,323.629105 830.96161,323.830359 830.371265,323.830359 C830.154806,323.830359 829.992461,323.81683 829.884231,323.789773 C829.640714,323.654485 829.444547,323.47523 829.295731,323.252005 C829.146915,323.028781 829.072507,322.781882 829.072507,322.511307 C829.072507,322.281319 829.126622,322.058095 829.234852,321.841635 L829.234852,321.841635 L835.058971,310.457207 L835.145826,310.302573 C835.269208,310.106677 835.422894,309.951908 835.606885,309.838267 C835.836873,309.696215 836.080391,309.62519 836.337437,309.62519 Z M817.804264,309.56431 C818.169539,309.56431 818.500993,309.713126 818.798625,310.010758 C819.096258,310.308391 819.245074,310.626316 819.245074,310.964534 L819.245074,310.964534 L819.245074,322.389549 L819.239586,322.539366 C819.192029,323.171972 818.835346,323.588774 818.169539,323.789773 C817.817792,323.789773 817.530307,323.742422 817.307083,323.647721 C817.083859,323.55302 816.823431,323.363618 816.525798,323.079514 L816.525798,323.079514 L809.808783,314.556413 L809.808783,322.389549 L809.801535,322.569495 C809.772545,322.918205 809.656584,323.199823 809.453653,323.41435 C809.216901,323.664632 808.909122,323.789773 808.530317,323.789773 C808.151513,323.789773 807.826823,323.664632 807.556249,323.41435 C807.285674,323.164069 807.150387,322.822468 807.150387,322.389549 L807.150387,322.389549 L807.150387,311.167465 L807.155564,310.981928 C807.176271,310.62245 807.2591,310.332549 807.40405,310.112224 C807.57316,309.855178 807.894467,309.726655 808.367973,309.726655 C808.706191,309.726655 808.95309,309.770623 809.108671,309.85856 C809.264251,309.946497 809.497622,310.139281 809.808783,310.436914 L809.808783,310.436914 L816.525798,318.838256 L816.525798,310.964534 L816.533667,310.820826 C816.565142,310.535894 816.691042,310.265872 816.911367,310.010758 C817.168413,309.713126 817.466045,309.56431 817.804264,309.56431 Z M772.930648,309.56431 C773.201223,309.56431 773.427829,309.62519 773.610467,309.746948 C773.793105,309.868707 773.992654,310.051345 774.209114,310.294862 L774.209114,310.294862 L778.673595,316.321912 L783.300422,310.071638 L783.395863,309.967001 C783.628177,309.739127 783.927817,309.62519 784.294784,309.62519 C784.646531,309.62519 784.954309,309.743566 785.21812,309.980319 C785.48193,310.217072 785.613835,310.545143 785.613835,310.964534 L785.613835,310.964534 L785.613835,322.389549 L785.606588,322.569495 C785.577598,322.918205 785.461637,323.199823 785.258706,323.41435 C785.021953,323.664632 784.734468,323.789773 784.396249,323.789773 C784.017445,323.789773 783.706284,323.664632 783.462767,323.41435 C783.21925,323.164069 783.097491,322.822468 783.097491,322.389549 L783.097491,322.389549 L783.097491,314.881102 L779.728837,319.142653 L779.606076,319.283201 C779.276042,319.635951 778.924629,319.812325 778.551837,319.812325 C778.132446,319.812325 777.753642,319.589101 777.415423,319.142653 L777.415423,319.142653 L774.391752,314.881102 L774.391752,322.389549 L774.384934,322.543015 C774.353121,322.892226 774.209959,323.179289 773.95545,323.404204 C773.664582,323.66125 773.322982,323.789773 772.930648,323.789773 C772.59243,323.789773 772.304945,323.664632 772.068192,323.41435 C771.831439,323.164069 771.713062,322.822468 771.713062,322.389549 L771.713062,322.389549 L771.713062,310.964534 L771.719263,310.806981 C771.739932,310.552378 771.812273,310.337703 771.936287,310.162957 C772.085103,309.953261 772.254212,309.801063 772.443614,309.706362 C772.633016,309.611661 772.795361,309.56431 772.930648,309.56431 Z M760.569922,311.877724 C759.785255,311.877724 759.027646,312.060361 758.297095,312.425637 C757.566543,312.790913 756.971279,313.338827 756.511302,314.069378 C756.051325,314.79993 755.821337,315.672533 755.821337,316.687188 C755.821337,317.701843 756.051325,318.571064 756.511302,319.294851 C756.971279,320.018638 757.566543,320.566552 758.297095,320.938592 C759.027646,321.310632 759.785255,321.496652 760.569922,321.496652 C761.381646,321.496652 762.156166,321.310632 762.893482,320.938592 C763.630797,320.566552 764.232826,320.018638 764.699567,319.294851 C765.166309,318.571064 765.399679,317.701843 765.399679,316.687188 C765.399679,315.672533 765.166309,314.79993 764.699567,314.069378 C764.232826,313.338827 763.630797,312.790913 762.893482,312.425637 C762.156166,312.060361 761.381646,311.877724 760.569922,311.877724 Z M796.499484,313.230009 L793.612103,319.028246 L799.152119,319.028246 L796.499484,313.230009 Z M836.317143,313.62293 L833.821092,318.635326 L838.610264,318.635326 L836.317143,313.62293 Z M744.758254,312.202413 L740.841685,312.202413 L740.841685,316.463964 L744.758254,316.463964 C745.394104,316.463964 745.894667,316.247504 746.259943,315.814585 C746.625219,315.381665 746.807857,314.874338 746.807857,314.292602 C746.807857,313.724396 746.628601,313.233979 746.270089,312.821353 C745.911578,312.408726 745.407633,312.202413 744.758254,312.202413 L744.758254,312.202413 Z M676.65101,207.310476 C680.214971,207.310476 683.633133,207.79647 686.905497,208.76846 C690.177861,209.740449 693.04523,211.166033 695.507602,213.045212 C697.321982,214.470797 698.229172,216.155578 698.229172,218.099557 C698.229172,219.58994 697.678378,220.902126 696.576791,222.036113 C695.475203,223.170101 694.179217,223.737094 692.688833,223.737094 C691.457647,223.737094 690.32366,223.348299 689.286871,222.570707 C687.53729,221.469119 685.382714,220.56193 682.823142,219.849137 C680.263571,219.136345 677.752598,218.779949 675.290225,218.779949 C672.309458,218.779949 669.766086,219.363143 667.66011,220.52953 C665.554133,221.695917 664.241947,223.510297 663.723553,225.97267 C663.658754,226.296666 663.626354,226.750261 663.626354,227.333455 C663.626354,229.212634 664.306747,230.784017 665.667532,232.047603 C667.028317,233.311189 668.729298,234.315578 670.770475,235.060769 C672.811653,235.805961 675.614222,236.664552 679.178183,237.636541 C684.167728,238.997326 688.217683,240.341911 691.328049,241.670297 C694.438414,242.998682 697.111385,244.99126 699.34696,247.648031 C701.582535,250.304801 702.700323,253.771563 702.700323,258.048316 C702.700323,262.973061 701.436737,267.055416 698.909565,270.295381 C696.382393,273.535345 693.061429,275.916719 688.946675,277.439502 C684.83192,278.962285 680.376969,279.723677 675.581822,279.723677 C671.175471,279.723677 666.931118,279.108083 662.848763,277.876897 C658.766408,276.645711 655.429245,274.960929 652.837273,272.822553 C651.152492,271.461768 650.310101,269.647388 650.310101,267.379413 C650.310101,265.82423 650.698897,264.463445 651.476488,263.297058 C653.031671,261.741875 654.586854,260.964284 656.142037,260.964284 C657.438023,260.964284 658.766408,261.515078 660.127193,262.616665 C662.20077,264.04225 664.857541,265.241036 668.097505,266.213026 C671.337469,267.185015 674.447835,267.67101 677.428602,267.67101 C680.862964,267.67101 683.730332,266.925818 686.030707,265.435434 C688.331082,263.945051 689.675667,261.579877 690.064462,258.339913 C689.870065,256.460733 689.076273,254.90555 687.683089,253.674364 C686.289904,252.443178 684.572723,251.454989 682.531546,250.709797 C680.490368,249.964605 677.720199,249.106014 674.221037,248.134025 C669.361091,246.77324 665.392135,245.428655 662.314169,244.10027 C659.236203,242.771884 656.611832,240.795506 654.441056,238.171135 C652.27028,235.546764 651.184892,232.096202 651.184892,227.819449 C651.184892,227.236256 651.249691,226.296666 651.379289,225.000681 C651.832884,221.177523 653.290868,217.937558 655.753241,215.280788 C658.215614,212.624017 661.27738,210.631439 664.93854,209.303054 C668.599699,207.974668 672.503856,207.310476 676.65101,207.310476 Z M633.789524,210.129245 C635.539104,210.129245 637.045688,210.663839 638.309274,211.733027 C639.57286,212.802215 640.204653,214.308799 640.204653,216.252777 L640.204653,216.252777 L640.204653,254.646353 L640.201446,255.190462 C640.111659,262.767142 638.13635,268.628306 634.275518,272.773953 C630.322762,277.018306 624.264029,279.140483 616.099319,279.140483 C611.692967,279.140483 607.772611,278.395291 604.338249,276.904908 C600.903886,275.414524 597.761121,272.822553 594.909953,269.128994 C594.002763,268.027406 593.549168,266.796219 593.549168,265.435434 C593.549168,263.685854 594.21336,262.130671 595.541746,260.769886 C596.870131,259.409101 598.376714,258.728708 600.061496,258.728708 C601.746277,258.728708 603.171861,259.4415 604.338249,260.867085 C606.087829,263.07026 607.950809,264.625443 609.927187,265.532633 C611.903565,266.439823 613.993342,266.893418 616.196518,266.893418 C619.56608,266.893418 622.255251,266.018628 624.264029,264.269047 C626.272806,262.519466 627.309595,259.311902 627.374394,254.646353 L627.374394,254.646353 L627.374394,216.252777 L627.379645,215.949468 C627.442649,214.151422 628.072692,212.745942 629.269773,211.733027 C630.533359,210.663839 632.039943,210.129245 633.789524,210.129245 Z M746.51004,208.671261 C750.786792,208.671261 754.690949,209.351653 758.22251,210.712438 C761.754071,212.073223 765.269432,214.276399 768.768594,217.321965 C769.416587,217.969958 769.934981,218.71515 770.323777,219.557541 C770.712572,220.399931 770.90697,221.274722 770.90697,222.181912 C770.90697,223.996292 770.291377,225.519075 769.060191,226.750261 C767.764205,227.851849 766.338621,228.402643 764.783438,228.402643 C762.969058,228.402643 761.413875,227.75465 760.117889,226.458664 C758.23871,224.449887 756.229932,223.056702 754.091556,222.279111 C751.953179,221.501519 749.426007,221.112723 746.51004,221.112723 C741.714892,221.112723 737.648737,222.133312 734.311574,224.17449 C730.974411,226.215667 728.479638,228.937237 726.827257,232.3392 C725.174875,235.741162 724.348684,239.483321 724.348684,243.565676 C724.348684,247.71283 725.174875,251.552187 726.827257,255.083749 C728.479638,258.61531 730.974411,261.434078 734.311574,263.540055 C737.648737,265.646032 741.714892,266.69902 746.51004,266.69902 C751.953179,266.69902 757.007524,264.625443 761.673072,260.478289 C762.77466,259.635898 764.038246,259.214703 765.46383,259.214703 C766.500619,259.214703 767.488808,259.4415 768.428398,259.895095 C769.367987,260.34869 770.096979,260.931884 770.615373,261.644676 C771.522563,262.875863 771.976158,264.204248 771.976158,265.629832 C771.976158,267.444212 771.166167,269.161393 769.546185,270.781375 C766.43582,273.697343 762.985258,275.689921 759.1945,276.759109 C755.403741,277.828298 751.175588,278.362892 746.51004,278.362892 C738.993322,278.362892 732.675392,276.807709 727.556249,273.697343 C722.437105,270.586977 718.630147,266.407424 716.135375,261.158681 C713.640602,255.909939 712.393216,250.045604 712.393216,243.565676 C712.393216,237.150546 713.705402,231.302411 716.329773,226.021269 C718.954144,220.740128 722.842101,216.528174 727.993644,213.385409 C733.145187,210.242643 739.317319,208.671261 746.51004,208.671261 Z M813.209526,174 L814.913335,176.381726 L815.055259,178.830941 C817.467912,177.606334 820.590198,177.198131 823.144775,177.470266 C825.273607,177.742402 826.976654,178.422739 828.112032,179.375212 C829.24741,180.327684 829.531244,181.416224 829.38932,182.640831 C829.24741,183.457237 829.24741,183.865439 829.105486,184.545776 L828.253956,186.858924 C831.376228,189.716342 835.491955,191.349151 840.601122,192.029489 C843.58147,192.437692 846.845667,192.029489 849.542181,191.213084 C845.994137,193.934434 842.58803,196.247582 838.472303,197.744324 C834.782348,198.832864 830.666622,199.513201 826.408971,198.968932 C824.280153,198.696796 823.002851,198.152527 821.867487,197.47219 C820.590198,196.655785 820.30635,196.111514 820.448274,195.431177 L822.719017,188.899937 C820.164426,188.627802 817.326002,189.444206 814.487563,191.077016 L814.363652,205.866 L818.758002,213.822804 L846.1681,268.351402 C846.686494,269.323391 846.945691,270.36018 846.945691,271.461768 C846.945691,273.276148 846.249099,274.798931 844.855914,276.030117 C843.46273,277.261304 841.891347,277.876897 840.141766,277.876897 C839.040178,277.876897 838.035789,277.5853 837.128599,277.002107 C836.297009,276.467513 835.601541,275.687896 835.042197,274.663257 L834.893024,274.377736 L830.616271,265.82423 L812.828868,231.129651 L790.570313,274.377736 C789.468725,276.71051 787.362749,277.876897 784.252383,277.876897 C783.215594,277.876897 782.438003,277.812098 781.919609,277.682499 C780.753222,277.034506 779.813632,276.175916 779.10084,275.106728 C778.388048,274.037539 778.031652,272.854952 778.031652,271.558967 C778.031652,270.567538 778.241601,269.602352 778.661501,268.663411 L778.809243,268.351402 L806.705335,213.822804 L811.300652,205.765 L811.434524,176.109591 L813.209526,174 Z M963.843452,209.546051 L964.407721,209.551471 C968.530866,209.63097 972.327933,210.584953 975.79892,212.413419 C979.42768,214.324998 982.343648,217.143767 984.546824,220.869726 C986.749999,224.595685 987.851587,229.050636 987.851587,234.234579 C987.851587,239.159324 986.749999,243.436077 984.546824,247.064837 C982.343648,250.693597 979.41148,253.447567 975.750321,255.326746 C972.248342,257.124222 968.46475,258.062035 964.399544,258.140186 L963.843452,258.145515 L947.611231,258.145515 L947.611231,270.975773 L947.605831,271.317319 C947.544632,273.229798 946.963239,274.752131 945.861651,275.884319 C944.695264,277.083106 943.20488,277.682499 941.3905,277.682499 C939.640919,277.682499 938.101936,277.066906 936.773551,275.835719 C935.515081,274.669332 934.852728,273.153998 934.786493,271.289718 L934.780973,270.975773 L934.780973,216.252777 L934.787363,215.956976 C934.855526,214.387443 935.468989,212.947061 936.627753,211.635828 C937.79414,210.315969 939.280395,209.621306 941.086518,209.55184 L941.3905,209.546051 L963.843452,209.546051 Z M861.63878,209.546051 C862.934766,209.546051 864.020154,209.837648 864.894944,210.420841 C865.769735,211.004035 866.725524,211.878825 867.762313,213.045212 L867.762313,213.045212 L889.146077,241.913294 L911.307432,211.976024 L911.485549,211.767533 C912.63363,210.480943 914.161841,209.837648 916.07018,209.837648 C917.754961,209.837648 919.229145,210.404642 920.492731,211.538629 C921.756317,212.672617 922.38811,214.243999 922.38811,216.252777 L922.38811,216.252777 L922.38811,270.975773 L922.38286,271.317319 C922.32336,273.229798 921.758117,274.752131 920.687129,275.884319 C919.553141,277.083106 918.176156,277.682499 916.556174,277.682499 C914.741794,277.682499 913.251411,277.083106 912.085023,275.884319 C910.918636,274.685532 910.335443,273.04935 910.335443,270.975773 L910.335443,270.975773 L910.335443,235.01217 L894.200421,255.423945 L893.981048,255.685673 C892.294017,257.649564 890.487962,258.631509 888.562883,258.631509 C886.554105,258.631509 884.739725,257.562321 883.119743,255.423945 L883.119743,255.423945 L868.637103,235.01217 L868.637103,270.975773 L868.631314,271.289718 C868.561848,273.153998 867.867185,274.669332 866.547326,275.835719 C865.154141,277.066906 863.517959,277.682499 861.63878,277.682499 C860.018798,277.682499 858.641813,277.083106 857.507826,275.884319 C856.373838,274.685532 855.806845,273.04935 855.806845,270.975773 L855.806845,270.975773 L855.806845,216.252777 L855.8123,215.923739 C855.859577,214.516173 856.214154,213.346066 856.876033,212.413419 C857.588825,211.409031 858.398816,210.680039 859.306006,210.226444 C860.213196,209.772849 860.990787,209.546051 861.63878,209.546051 Z M963.843452,221.793116 L947.611231,221.793116 L947.611231,245.995649 L963.843452,245.995649 C965.981829,245.995649 967.942007,245.444855 969.723987,244.343267 C971.505968,243.241679 972.915352,241.783695 973.952141,239.969315 C974.988929,238.154935 975.507324,236.243356 975.507324,234.234579 C975.507324,230.800217 974.373336,227.868049 972.105361,225.438076 C969.837386,223.008103 967.083417,221.793116 963.843452,221.793116 Z" id="Combined-Shape"></path>
        </g>
    </g>
</svg>