<svg xmlns="http://www.w3.org/2000/svg" width="116.619" height="160.463" viewBox="0 0 116.619 160.463">
  <g id="Group_2" data-name="Group 2" transform="translate(-27.088 -30.935)">
    <path id="Path_1" data-name="Path 1" d="M55.963,30.935H99.037V134.07Z" transform="translate(44.67 0)" fill="#d60812"/>
    <path id="Path_2" data-name="Path 2" d="M70.231,30.935H27.122V134.07Z" transform="translate(0.052 0)" fill="#d60812"/>
    <path id="Path_3" data-name="Path 3" d="M61.445,45.857,88.9,110.98H70.907L62.695,90.239H42.61Z" transform="translate(24.012 23.085)" fill="#d60812"/>
    <g id="Group_1" data-name="Group 1" transform="translate(27.088 152.222)">
      <path id="Path_4" data-name="Path 4" d="M35.322,106.591l-1.9,8.965c-.059.346-.173.4-.458.4H27.505c-.346,0-.461-.115-.4-.573l7.529-32.474a11.79,11.79,0,0,0,.229-3.163.3.3,0,0,1,.346-.344h7.817c.285,0,.4.115.458.4L52.278,115.5c.056.344-.059.458-.346.458H45.839a.408.408,0,0,1-.458-.4l-2.012-8.965Zm6.839-6.151c-.8-4.195-2.3-10.517-2.873-14.6h-.059c-.573,3.963-1.666,9.539-2.644,14.6Z" transform="translate(-27.088 -77.239)" fill="#1a1718"/>
      <path id="Path_5" data-name="Path 5" d="M37.355,103.308c0-8.291,4.88-14.7,12.659-14.7h.909V78.839c0-.171.112-.285.341-.285h6.075c.227,0,.283.115.283.285v32.7a25.432,25.432,0,0,0,.171,3.8.353.353,0,0,1-.227.4,18.768,18.768,0,0,1-8.232,1.987C42.179,117.73,37.355,113.074,37.355,103.308Zm13.568-8.629a3.042,3.042,0,0,0-1.248-.171c-3.181,0-5.565,2.9-5.565,8.573,0,6.019,2.384,8.515,5.507,8.515a4.807,4.807,0,0,0,1.307-.171Z" transform="translate(-11.206 -78.554)" fill="#1a1718"/>
      <path id="Path_6" data-name="Path 6" d="M67.4,96.977c0,8.971-3.747,14.648-10.333,14.648-7.379,0-10.331-6.472-10.331-14.706,0-8.4,3.747-14.419,10.445-14.419C63.6,82.5,67.4,87.836,67.4,96.977Zm-14.024,0c0,5.28,1.136,8.741,3.691,8.741,2.443,0,3.635-2.952,3.635-8.685,0-5.336-.909-8.629-3.576-8.629C54.8,88.4,53.379,91.071,53.379,96.977Z" transform="translate(3.312 -72.449)" fill="#1a1718"/>
      <path id="Path_7" data-name="Path 7" d="M62.638,78.554c.227,0,.283.115.283.341v10.05a13.873,13.873,0,0,1,3.067-.341c5.9,0,10.389,4.541,10.389,13.341,0,10.277-5.848,15.784-13.171,15.784a21.479,21.479,0,0,1-6.587-1.021.5.5,0,0,1-.341-.456V78.9a.3.3,0,0,1,.341-.341Zm2.328,16.069a7.053,7.053,0,0,0-2.045.283v16.747a4.636,4.636,0,0,0,1.192.115c2.555,0,5.565-2.611,5.621-9.651C69.79,96.61,67.577,94.623,64.966,94.623Z" transform="translate(18.069 -78.554)" fill="#1a1718"/>
      <path id="Path_8" data-name="Path 8" d="M71.781,98.623c0,4.373,1.645,7.04,6.245,7.04a11.6,11.6,0,0,0,4.315-.795c.283-.112.453-.112.453.285v4.712c0,.4-.115.624-.4.739a12.416,12.416,0,0,1-5.621,1.021c-8.344,0-11.581-6.133-11.581-14.138,0-8.515,3.747-14.987,10.389-14.987,6.984,0,9.027,6.187,9.027,11.24A31.224,31.224,0,0,1,84.327,98a.547.547,0,0,1-.512.453c-.568.059-2.328.171-5.392.171ZM76.6,93.287a9.1,9.1,0,0,0,1.7-.059,2.561,2.561,0,0,0,.056-.624c0-2.157-.68-4.427-3.008-4.427-2.272,0-3.179,2.328-3.464,5.109Z" transform="translate(31.862 -72.449)" fill="#1a1718"/>
    </g>
  </g>
</svg>
